<mxfile host="app.diagrams.net" agent="Mozilla/5.0 (Windows NT 10.0; Win64; x64) AppleWebKit/537.36 (KHTML, like Gecko) Chrome/134.0.0.0 Safari/537.36" version="26.0.16">
  <diagram name="‫עמוד-1‬" id="zu10xLYhzGCXm7lj-Rhg">
    <mxGraphModel dx="1718" dy="501" grid="0" gridSize="10" guides="1" tooltips="1" connect="1" arrows="1" fold="1" page="0" pageScale="1" pageWidth="827" pageHeight="1169" math="0" shadow="0">
      <root>
        <mxCell id="0" />
        <mxCell id="1" parent="0" />
        <mxCell id="APwTUMDmVfPKR00U0lOk-10" value="US-east" style="points=[[0,0],[0.25,0],[0.5,0],[0.75,0],[1,0],[1,0.25],[1,0.5],[1,0.75],[1,1],[0.75,1],[0.5,1],[0.25,1],[0,1],[0,0.75],[0,0.5],[0,0.25]];outlineConnect=0;gradientColor=none;html=1;whiteSpace=wrap;fontSize=12;fontStyle=0;container=1;pointerEvents=0;collapsible=0;recursiveResize=0;shape=mxgraph.aws4.group;grIcon=mxgraph.aws4.group_region;strokeColor=#00A4A6;fillColor=none;verticalAlign=top;align=left;spacingLeft=30;fontColor=#147EBA;dashed=1;" vertex="1" parent="1">
          <mxGeometry x="-75" y="9" width="848" height="555" as="geometry" />
        </mxCell>
        <mxCell id="APwTUMDmVfPKR00U0lOk-1" value="" style="outlineConnect=0;dashed=0;verticalLabelPosition=bottom;verticalAlign=top;align=center;html=1;shape=mxgraph.aws3.cloud_2;fillColor=#F58534;gradientColor=none;" vertex="1" parent="APwTUMDmVfPKR00U0lOk-10">
          <mxGeometry x="3" y="28" width="65" height="60" as="geometry" />
        </mxCell>
        <mxCell id="APwTUMDmVfPKR00U0lOk-45" style="edgeStyle=orthogonalEdgeStyle;rounded=0;orthogonalLoop=1;jettySize=auto;html=1;exitX=1;exitY=0.5;exitDx=0;exitDy=0;entryX=0;entryY=0.5;entryDx=0;entryDy=0;" edge="1" parent="APwTUMDmVfPKR00U0lOk-10" source="APwTUMDmVfPKR00U0lOk-11" target="APwTUMDmVfPKR00U0lOk-38">
          <mxGeometry relative="1" as="geometry" />
        </mxCell>
        <mxCell id="APwTUMDmVfPKR00U0lOk-11" value="" style="rounded=1;whiteSpace=wrap;html=1;" vertex="1" parent="APwTUMDmVfPKR00U0lOk-10">
          <mxGeometry x="357" y="321" width="253" height="174" as="geometry" />
        </mxCell>
        <mxCell id="APwTUMDmVfPKR00U0lOk-5" value="" style="rounded=1;whiteSpace=wrap;html=1;" vertex="1" parent="APwTUMDmVfPKR00U0lOk-10">
          <mxGeometry x="107" y="28" width="458" height="132" as="geometry" />
        </mxCell>
        <mxCell id="APwTUMDmVfPKR00U0lOk-22" style="edgeStyle=orthogonalEdgeStyle;rounded=0;orthogonalLoop=1;jettySize=auto;html=1;entryX=0.5;entryY=0;entryDx=0;entryDy=0;" edge="1" parent="APwTUMDmVfPKR00U0lOk-10" source="APwTUMDmVfPKR00U0lOk-12" target="APwTUMDmVfPKR00U0lOk-17">
          <mxGeometry relative="1" as="geometry">
            <Array as="points">
              <mxPoint x="241" y="171" />
              <mxPoint x="162" y="171" />
            </Array>
          </mxGeometry>
        </mxCell>
        <mxCell id="APwTUMDmVfPKR00U0lOk-42" style="edgeStyle=orthogonalEdgeStyle;rounded=0;orthogonalLoop=1;jettySize=auto;html=1;entryX=0.5;entryY=0;entryDx=0;entryDy=0;" edge="1" parent="APwTUMDmVfPKR00U0lOk-10" source="APwTUMDmVfPKR00U0lOk-12" target="APwTUMDmVfPKR00U0lOk-39">
          <mxGeometry relative="1" as="geometry">
            <Array as="points">
              <mxPoint x="241" y="18" />
              <mxPoint x="765" y="18" />
            </Array>
          </mxGeometry>
        </mxCell>
        <mxCell id="APwTUMDmVfPKR00U0lOk-12" value="" style="shape=image;verticalLabelPosition=bottom;labelBackgroundColor=default;verticalAlign=top;aspect=fixed;imageAspect=0;image=data:image/png,iVBORw0KGgoAAAANSUhEUgAAAOUAAACcCAYAAACA5GwfAAAAAXNSR0IArs4c6QAAAARnQU1BAACxjwv8YQUAAAAJcEhZcwAADsMAAA7DAcdvqGQAAEh6SURBVHhe7Z13eBTV+sc/M7M1u9n0hB46UqSJDWwgcgF/V8WKoqJXsWBBsOtVUcSGXssVvYoN0SsKFsRKUaQI0nuvIaSQnu27M3N+f2QTk02yCRgUvfN5nnkIU96dOXO+p77nHamkpEQQg8TExOhd9VJaWhq9q04Mm42jLptqOExZWRn79+9n2dJlLPrxB8pKy/D5fKiqiqLImEwmZEkCQBcCVdVQVRWLxUJcXBzNmjdn8Hnncdrpp9EmMxObzYYsyzV+57feZ10YNhuHZIiyfo4Xm0IIVFWlqKiIX1as4L8zPuBQTg7BQAAhBIqi4Iizk56axAmd2tHthPbEOx0IAeVuD3v3Z7NzzwFKy9yUuT0E/EE0XcflcjFk6N+46uqrycjIwGw2V/320dxnQxg2G4chyhgcDzZVVcXn87H4p5/4z9TXKC0tRTEp+H1+AGw2K21aNePhCTfSuUMmcXYbUqSWrEIINF3H7fGSnXOYD2Z9zc8rN+DzB1DDKilpaTzy2KP06dsXq9UKR3GfjcGw2TgMUcbgj7SpaRr5+fls2byZV156mawDB0hJTeGCCy6gebNmPP/881jMCo/dezP9encjLs4euVJA5I0KBELTEEIDUe01SzKFxWUsXr6eae9/SkFxKU5nPDfedBMXXTwCq9Xa6PvkGDw7/+M2DVHG4I+yqaoq+/bu46knJ7Fm9RratWvHyCtH0rlzJxb9uIiPZ87kwmFn849RF5GYEF9RMwqBroXR1SBCUxG6hhB6tOkaSJJMflEp73z0DV/O+xmL1cY1o6/lmtGjSUtLiz69Xpry2Sv5X7ZZs3dv8IcTCoX45OOPuXbUKLZs3sItt97Mk5MnoQvBpEmTmT3rY558eCx33TKKpEQXkgRayE/IW0LYV4oW8qNr4QYFCSCETnqyi/FjLuGmq/+PUDDA9Pem88nMj9H1hq83ODYYojyOCAaDTP33v3n6ycm0aNGcKc9PoVfv3nz2+Rw+m/0ZPncJb730GGec2hdFUdDVMCFvCWrAjdDVaHONxmoxc+UFA7nm0vMI+P1Me+MN5n//ffRpBr8ThiiPE4QQzP5kFu+/N53evXvz4EMPEg6H+fzzL8nLy8NdVswrT99P+7atkGUJLRQg7C9FaEcvxupYrGZGXTyEc8/sh9fr5Z8PPcyunTujTzP4HTBEeZxwOD+fGe+/T6tWrRh7260UF5cw96uvKS8vZ9eO7Txyzw20ad0cSZLQQn7UoDtq8Eaq2I4GScJsdZCS0YJ77rietq1bUF5ezhOPP044HI4+2+AYY4jyOOHrr74iPy+PPn37MG3aW9x///0smDeP5cuW0KVDK3qfeAKyJKGHg6hBz6+ClCQUsw3ZlkBA2PCGJDTtyPqDsmKhxBPihdc+4ObxT6BqGpqmsX7tOpYsXhx9usExxhDlH4yqqiyYP5+3pr2Fz+fj888+Z+uWLXTr2pVRo66iXbv2lJaWYzaZELqGGqhWQ0oSii2ew2UBHpr0KlfccD9X3fIor7zzOcFQ42u4YFhn2vufMfe7RRSXlJF/uBAig06zP5mFqF4jGxxzJNFAijd2yJcjGPY1bP7Koh8X8eTjj+N2u4mPj+fii0fQ7+R+mExmsrIOsmTJEjauX8u8T/+DSQTQw8GqaxWrgx37cvnn5KnkHy7CYjGREO8gOSmeFx+7FbutwhGgIcIarFy/jZQEB4qicDC3gP+8P5d9B/Ow2+189uUckpOTazslRDjaZ4/F/7JNQ5QxONY2iwoLuX70aPLz8mnZsiW33HIzroQEtm/fSV5+PsFgkMOHD7Nt8wa++vBFHGa9wjkAkGSZUr/ETeMnEQwGuO6yv3FSr84442yARLzDjsmkVPvl+hFCIKDKX1bVNA4XlvLUv//LyvU7mDT5SQYPGVLLP7aSo3n2hvhftll3Khv8LmzYsIHi4mIcDgd33TUOSZb5afES9u3fX+VgrqoqkgQm1CpBQoVXzqdfLcTr8/HwHaMYfu6ptG6eRlJCPEkJzkYLEkCSpCpBApgUhWZpSdx36xUkuBxsWL/BmLf8HTFE+Qey4uflqKrKmWediayYWL1mHV6vr6oPJ4Qg4PeTlpKIxVzbn3XxstVcf/nf6Nm1PRazqebx34gsyzRLS6J3tw7s3rXL6Ff+jhii/APZvHkTQhcMHjyYNWvXEQgEahwXQuD1uDmpRyeie3NC17h4+Bmcd+ZJWK2/ru6oRNN1SsrcRyUmTdPx+gLIskz3Lm3Jyso6KjsGR4chyj+IcDhMTk4uJpMJq9WCz+etlfF1XcfrcdO/X7ca+yu5YPBpuOLjoneDJKFqgtfe/wqPr6bQK/EHgqiqFr0bJAl/WGfZ6i1IEmS2TKeoqIhQKBR9psExwhDlH0AoFGLhggWEgkFMJhO5efl1CkTTNCQJmmekRB+qF0mSMdsTsDpTaNc2k607D0SfAsCPP29g+56smn1FScJsdyGZHcz4bCFeX5CkxHiEEOTl5Rn9yt8JQ5S/I0KIqrm/SY8/QTgUQgiBx+2pVUsSqSllCVzxjuhD9SIpZmTFjMViZth5Z/Dux9/hD/w6jVKJ3Wbhi+9/xh/4tQaUZRNS5NrU5ERWrNuGy1lRE2/ftg1NbRqXPoPYGKL8HQmHw8z65BNeeekltGAQqyQRDoexWMxomobP5yMcDqPreoVIhUCSJKyW2n3G+hC6ih7xh3U5HSQkuHj57c9refl07ZTJus272b7nYFWBoGkqQa8bPeThoiGn8dr0OVUDvv+a8jwrlq9ANYR5zDFE+TsRDoeZO+dL/v3Sy2iqym0J8ZxjtyFUle+++44F877npx8WsnD+PNasWkVJSUlkXlAiUK02awifz8eO7VspKzwEoTKuvXgQX877mXmLV6NXq41Tk1ykpSQw7b9fU1hcDsCGLbu5YfxkrrxlIg898zaFxWXkHC4CoLy8nImPPsq2bduMZuwxxljkHIOmsqlpGhvWr2fCuLvwe72MjndwtcvJTYcL2RtSQZbp2K41bdu0oKS0nE3bdiNJMt1P7Mnh3ENMvudqunXOjDZbJ6s37ODeydMIBkOkJLkoKXOjqhqP3z2aIWf3q+GVs37Lbh565h2GDzqVMaOGcyi3kMn//pD8wlI6tW3JVRcNpFf3jvS/8E5SZIliXZCans5/P55JZmZmla1Yz16dpkrP6vwVbSoPPPDAxOid1bHZbNG76iV6SL8+/pdsCiHIycnhrjvuxFtWxrA4O+OSXHzvC/Ct14/FbuPu26/l/juv57xzTmP4kDNJTU5k+aoNlJWX07JlK6yKTs9u7aNN10mCy4kQOoFgCCEgIy2Jy/7vbC4cOgAlyiMnJclFXkExXy1cQUZqIn1P7MTwQady2flnc95ZJ9GqeUX0gbc++pY7XE5yNY08j5cNGzYy8NxBOBwVfd36nj2apkjPaP6KNo3m6zGmvKyMyU9MorS4mPZmE+OTXJglieWBABpw7ci/c+6Zp/DIU68y7PLbmDb9U07p252TenXF7/NRWlrGz2u2Rputlzi7lesvH8qrT97Ju/+6l9eeupMrLxqESant4WM2m7jl6v+jS/vWTJ3+JVt3HsBiMWO3WbBazMiyjNdfkemSFIkJiU7igS2bNvHRhx/i8/miTRo0AYYojyGhUIhFixaxacMG4oRgUkoi8bKMKgR7wyrJSQlcdclw1mzYSkqCg2AwxMzPv+PdDz7lzFO6oaphsrOzKHN7ok3XiyRJmM0m4uxWHHE24uy2mN4+ToedB24bid1m5fEXZ5CbV9GHJFLLe7wVUfMSFYVmisLdSU7Mmsp777zLmtWrjf7lMcAQ5THkwP79vPH6f5DDISYkucg0mRBAsRZGFYLUlCQsFjP9+3XD6bBx0dABTJxwLdt27adjZnP+Oe5q/vXoLbz42Nho002GLMu0yEjhgbFXEAyGmPDE62QdOgwVnnwUl5QjA4myhCJBZ7OJ060Wgh4Pr77yCsXFxdEmDX4jhiiPERVrIz+jrKiIjmYzZ9ttyJJEqRYmJARxkhSZXhA47WbKPT769ezMKb1P4JzTe2NSFM4fdCqn9ulKemrjBwkaQlJMKGY7VHPcM5kUenbrwG3XXUReQQkPPfs2mlYxLXMor5AkRaay8WuRJK6KjyNNlti6ZStfzpmDakQnaFIMUR4DhBBs27qVed/PwyF0JiS5cMgyXl3DH2nutTIpFBQUEwiG0NUw7Vo3w+mwY7dZGTF0AK1bpqMoMrIc7fV69AghUMxxKNa4WmsjrRYz3btkYjGbsFktSLKELgT7svJIl2WkaiJOVGSGO2wQCPDZrNkUFFYsijZoGgxRHgMCgQDffv0N/vJy+lqtdDSb0YTArWuISB3V3WLG6/Xx7YKlhMNhzjm9J4kJTiSpYlS00pOmKdl/MI+C4jLCgZoeRKqqUVRSztKVm5FlmSsvHIgsSQhdZ29WLs1Nco3wPzJwps1KO7OJA/v38+3XXxtOBU2IIcpjQFZWFkuXLMGJ4FqXE4skUaapaNWE0MNqxirBR7O/pdTtIyXJRZsW6TXsNCVCCNZv2cO8hYvxez2omoovEORQXiHzFq/h/snT+OL7Zfx98Gmc0qcrul7xqYO9B3LINCm1Vqk4ZYmz7RZEMMiiHxfhcbujzjA4WgxRNjGaqvLd19/gLivjRIuFtmYTmhAEooIjpysyZ9qs5Obm8/x/PqHcXbGOUgiBPxDiwKF88gtLa/T9fhsSdruVT79ZzIIla/hh2XpeffcLxj32GtM+/JqMtCSm/PNmrh85lFAozKZtezlcWMqh3EI6mk217kICTrNZaGFSOLB/P8uXL486w+BoMUTZxHg8HtasWYOiqQyKs2OTJEo1tXrMAIhk6oucdpxILP55HfdNnsaeAzkUFJfx3y8Wcvs/X2Xxqh21+n6NQ0IIQTAUxusLEAqr6ELntL5dkSWJf7/7BS++OZuDOQVcc8lg3nh2PA/efiWJLie/rN3ObQ+/QljVWLBkLSYh6FCHKAGckszJVjMhv5+v535F2Fje1SQYMXpicDQ2l//8M7ffOpY0n49X05NxyTIFaqiWKCvZFVZ5usRNua4jKQqKoqDpOmec2odJD40lTlEbH/1ckiIjq4Kgz8uSlRv57NulnNr7BHqc0I7WLdKQZRld1zEpCmazAkjszcpl4dK1LP5lEwWFpQw5ux93XH8R4x+binXfIR5Mjq9TlADbQyqTS8pJbNWaj2fPIj29/ib40aRnQ/wVbRo1ZRMihOCruV/h83rpY7MQL8v4I4M79dHJbOKpFBdD4mzYdJ1wMIQjzs5tN15BoiseSal/4j8aSVJQLHZ0HfzBICf37sKpfU5g2kffcMsDLzLsmgf5v+se5vJbJ3HJzY9zzbhn+XrhL9z5yKt88NlC8g4Xc3b/Xtw15mIKisvYtecg/WyxV6i0NCm0M5soLipi5S8row8bHAWGKJuQgN/Pzh3bUTSNEy0WFMDXCI+XZorCTS4HL6cm0t1iRtN0CgpLQAJZqS0Kj9df5/pLhI7QVYoKC3jw6bfYvH0/V140iP+++hBjR19I3x6dMCkKHo+fcreX0jIPqqriiLNxcs/OPDr+Gh4ddzWyJPPmh1+hqxo9rZZ6a0mAOFmil8VMMBDgqy+/jD5scBQYzdcYHKnN/Lw8Lr/0MgK5ObyWnkoLRaZYC8esKaujCXir3MuCsMrokX/nrluuRugaIc+vrm8As776ib+dczLxjrioLxVIyIoZTQuRm1/E/U9N447rLuKUPif8umZS1ykr9+IPBJEkidTkhFpueFmHDnPduGfopus8kBRf41hdrA6GmFLioXlmJl9+8zVxcXVP5xxpejaGv6JNo6ZsQrKysnCXl9PaZCJZkQmI2E3XaBQJulpMmDSNjVt24fcHQJKQ5JrO5K1bpPPs1Jl1RBQQ6FoICUhPTeSO6y/iwWfeZsLjr/PNDyvZtH0fh3ILUTUNm9UCSBQUleLzVwhUkiTKPT6efW0mWiDI5c7KD9HGJkNRsEsSoVCo6gvTBkePIcomZO2aNYTCITqazViAYOxGSJ30tppprSjsPXCIvMNFSEhIcs2arO+JncgvLOHbH1cSDNbt4mZSFHp168A1lwxm7eZdTH7lQ8Y+9ApX3/kMl938BBePmciVtz3JvU++SU5+RU0cVlVWrN3G5i17ONtupW0MR/bqJMgySYqEoOLr0Qa/DUOUTcjWrdtQwyptIlMI1Vf6NxaHLDPCaSfs9vLhrG/QhUCx1mwOWswmHr5zFDM+nc/WXfsJh+senbWYTVw14lymv/QAIy8cSJcOrWjZLIXWLdIY0K874/4xgn9Pup12rZshhOBAdsWcKarKeXZrozOHWYJMU+MEbNAwjU13gwYQQrB3zx4kTSNZltEQNDzEUxsF6G4x0UYS/LxqPaVl7qqAVtVp0yKdx8Zfy9OvfsS2XVmE64iGJ0kSFrOJNi3SuHnU//HKE7fz1pS7efPZCTw6/hou+Ft/UpJcmEwKpeVeXn77c8rcXkICVgVD1C312ihAhmJkpabCSMkmQlVVQqEQCuCQJdSjqCUBNKBcF5RqOocLivlw9jdoQmCy1oxopygVgZJvvHI4z74+k2WrNhEI1j15L0kSVqsZR5wNp8OOI86G3Wat+JKXEBwuLOXZ12aydtNudCGhSTKfewJ86vERasRzKJJEiiHKJsNIySZCVVU0TUORKpY3hRuRmasjALcumOcLMKXETa6mEQyF+eTzeezZdxBJMaOYa4aUsJhNnHVaTy49/yxee38u733yPUUl5Y1aeCyEwO3x8d2i1Ux4/HUWr9yMsDlpcdpQXG27EpQVPvMEeLvch1uP3VOUgfh6Pv5jcOQYgbNicCQ2c3NzGXXFSEqyD/JcajKtFInGjr36hWBzMMzXvgA7whpBWcHsTKz4arOnhE7tW/PovTfTqX1rJNWH0GoO7nh9AX5Yto73Z88n0eXk7+edxoCTexDvsGOpFp5SCEEgGKbc42X1hp0sWLKWtZt34fMFwGQhuXMfXG27IikKRZt/oezAVhRd42SrhRtcDpIVud5SfE0wzDRLHO9/+CHJKcnRh+EI0/NYvKM/i01DlDE4EpvVRfl0ShJtTDJ6A6IMC8EhTeN7b5AlgRB+WcGSmIqrTRcczduhh0Pk/vIdqqeU5EQXI84fRN+enUlPtONy2jEpMqqmsWz1Frbs2E/WocOs3rgTs0mheXoK5/TvRcfMlthsZnRdUFruZduuLFZv3EF+YQnBYBghBBIgSzKSyUxcy/ak9zoTEBRsXE551nbQVLpZzIxNcNDMpFQteK6OIcrYHIlNQ5QxOBKblaIsyj7IkymJtDfJ9UpSAKWazopAiJkeP15JQo6LJ6F9D1xtuqCYrSBJCKET9paTvXgOWsBLUlISLVo0IxwKYjUrpKcmEvD72bhxJ5ZwxdIwvxCERMUgkyRJmE0KdrsNhEDXdWw2C/GOOMrcXkrL3NiBtiYTnSxmdoZUdiKT3PccnBltkICibaso37cVLRyko9nEY8kunHL1Jc8Vz7MyEOJdq8MQZT0cic36WiMGR4iiKMiKjCbqd60TQEgIDoRVJpe4edvtw6OYsbdoT6szLyKxw4koFluVIIWmowtwtOuObLHhdLl4+JFH+dcrr/LYk8/yf5eMYuueHDJ1ndfTU5iWkcqYhHjamc0kyDKmSMjJi4eewbWXnsfD467m1Sfv5KZR5yNpGhmKiQeTEnklPYX7khK4N8mFTVcpz95Nae4BdE0jtduppPU6E9lkYU9YZWUgVGtUWQc8en1FkMGRYoiyiTCbzZhM5sjoae2GqyrArevM8vh5qLicPZoOdict+g+n2UnnYrI7kCQZIXR0LYyvtIjinH2UF+QgWew4OvUhr8zPLbeM5c3/vEEoFCQzMxOTonC1y0lrk0Ibs8LV8Q7ezUjl9fQUTrFZ8ZWUM3vuIr7/aTWLlq7lzfe/5IkXZ9AjrPFmWjKD4myEdI1CLYwJnRQJVE8ZWjhESe4BAj438a07kdC+O8gyXqHXmn/VhaCwnoLI4MgxRNlESJJEmzatEbJMiVZTlKqAlcEQEwrLmOXx45dkHM3b0eaci7GnNEeSK8SohoK4C3Ipzt6Ht6QAXY0M6EgSstlKXGZX9LR2fPPDEq699jrG3DiGsuJiXLJMua6SGw6Rp4Yo1cIkyoKJyS6mpCbRQdfZuzeb4OotxG3ciR4MMdrlJFmRURGEhI4mBIoE7c0m9FCF+57QNdwFubgLc1EsNiQkOplNKFFrPFUgv455UoOjwxBlE9LlhBNQzCYOaVqNKZFyXeftci+Fmo6smEnt0Z/mpwzBZHdUNGn9Xsrysyk5tI+Ap6zqAz21kCQUhwtH+xOxZnajXJXQI81GVVQ0jwWgU9GvDAqdOFmin82CXZa5OzGBG1xxNDPJvFxazhJ/gNJqH/5RIhERaiIIeMooz9mHS4JWJlOtTKMKyDJE2WREp6/Bb6B7jx6YTWYOhjVC1apKPZJxJcVE81POI6ljTyRZxl9eSknOPkrzDhLyeRBRIUPqRZIwORKwt+kKFiuCuoOGqEKgCUGyrOCQJNYE/ZToOuW64CSbhS5mBV1oUX1ECdlSO8S+6i2jrUkm+ivvRAqdoqivehkcPYYom5B27drjcDjI1jTKq/WxrJKES5ZACELeii9cAQQ8ZaihYKR+O3IkWQZrHIV19GErSZHhZKtCmiLzTLGbsQVleBUTKwIh5vv8bAmFOazpBIQgKGBHWMMUX3OkUA8F0ENBBtgs1BUY5LCm4xcCk9mM1WaNPmxwhBiibELi4+NJSU3Fpwv2VXMSt0pwqs2CEDpl+7YgIoK12B11ZPEjw5yYxopguN4VKX4heMftI8fpZMjf/87Dkx5n+ozptD33XD7UJCYWuxlX7GZMWYAxhWVsVjVMzuqiFKjeMmwSnGKzoETdsAZkqSqqLNOyZYt611IaNB5DlE2IzW6jXbt2aIrCjrBa5f9qliSGxtmwAmFvOf7CQyAEZmvNSOVHgyk+iZWqzmGtZp9OBwo1ncnFbhb6Q7TOzGT09aM59bTTSE3PYMwtN/PK61Npe0JXTrn6VoY/8i/OvPle7Clp+LK2Iyr7tQJUdyntzQo2qeb8JEBAF2wMhrFYrfxt6LCjDPRlUB0j8kAMjsbm/HnzuO/ue8gI+HkkOZ6EiE+oTwgeKypnl6qR0K4b6b3PRldDFB/aV1VzHg1C1wnu2cBNJpVz7BVNR58u2BQK864vhKVtJ9I792DTd58xZswNjL7+eu64/Xbad+jArWPHctf4u2k2YBhp7TqhayrFh7KY//pz2Nv3RDZbEULHvWUFl9sULnXYMUVpbm9Y5fFiN3HNmvHJp7Np3rx5zROqcTTp2RB/RZtGTdnE9D3pJFq1bk2OqrE19GsT1gycYbeAEHhzD4BeMRJ7JDVLVe1VDUmWIT6Z+YEwP/qCvFrq4YHict4IQ6dLRjPgutvpcuZgmnfrxaeffkZxURFPPv00d951FxarFV2AyVohZqHrFB7Yg5KQimyquFfNWw5qiP71NF3XBcP4gczMTJKTkmqeYHBUGKJsYlwuFyf164dmMvFzIFTV1zNJEmfarDgkCTXgJVByGEmSMFntRAXaqRMRDhE4tBvFVDuQliWlGXtNNt70BFgcVCmyO+l75Rja9j0Na5wTk8VK72EXU1JWzsyZM0lPT8NisRAOhdArm9FCUF6Qz9YlC7GmtorckyBccphMk0IzRa7VdPXqOquCIcx2O+f/3/lYIuI2+G0YomxizGYzf7/gAhwuF1tDYfIifT0pEuq/m8VcUVvmH0AIgcUWVyuz10IItIAXEQoQn9ocSar52mSTBWubrigtOyI7XZxw5nk0P+FEFLMFIo4NCc1a0q7fGSxc+AM7t2/npn/8gwMHDiBkBZPVSjgYZNeKn8CRhBSJIiB0geYupq/VXMthQERqyaywRqvWrRk8ZMgR1foG9WOI8hjQ5YQu9B/QHw8SX3gCVY4EiiQxKM6KBASK8kHomG2NqykBZJMZi92BHF1bShVzi0ILY7FYyOxzKnJUvFhJkulyxrkUFBbx89JlXHzppcTHu1DsDiQkDu/bycGd21CciRVFiBConhIIBTjZaqmVUXy64Ad/EM1s5pxzzml038qgYaLT2qAJcDgcXDTiYqxOJxtDYfIiE+sK0MdqJkmRCZUXIXQdWTHV+MxcnUggmS0oVnvF33WdLgSaz0PAXcaaOR9RsHcn4YAfqo3jJTZrSYtuvfn6m2/p378/QuhY4xMJBfxsWzIfOSG9KvizEDrhohyaKzKdoj5boANrgyF2hVXSMjK47IrLMZtrN6sNjg5DlMcASZI4qd9JDBw4EA8Sb5V5CVT2LZHoYTGjBf2EPGUVTdE6VVadippQqcPTpgpJwpLaEiGbObRtIz9Me4FfZr1HUfZ+Qn5vxQivJNFlwLnk5OaxY/s2Nm3chC0hmT2rllLu9qLYfp1jFJqK8JZzpt2KLFWs/XTrghxVY09YZZbHTxCJ84YMIaNZsxq3YvDbMER5jHA6nVx73XXEJSSwK6yyLaSiA7IEJ0RqnkBRLpIkN6ovJklyrfivNZAkTM4EnJ16Y2/dBVUT7Fv3C9+/MplFb79E4YHdBL0eklq0RrHF8fJLr/DDwoX4vR72rluJkpAGkb6q0HVCRTnImkoPi4lSTWeBP8hDRWXcV1TGo2U+8mQFxWRi65YteD3euiO2GxwVysSJEydG76xOIBCI3lUvNluMkrwa/ws2JUkiMTERi8XCsuUrWOcPMsBuxSFXxEf9wR9EsthwtmhLOOhHq1wRUoOIl3mlZoNenM3b4i8vQY9yFqhEkmUUmwNLSjMUu5OwpwRP4WF2/7KErI2rCXjcpLfrxO4NqzmUfYj8/buREtORbU4kISrWcaph/Nm7SRQ6ZULwntvLimAYv8mEYrMzcPBgzhtyHtkHD7Jnzx4OZWdzzsCBDTZhf0t61sdf0aZRUx5DbDYbF154ISd064YbeK3MQ0gIWpsVJAlUnxshBCaLrc5epdB1fNm70IIBdC1cMU8pKruJkT+EHvmGSOWmIXStouaMT8bRvie2Fu2RzBbKD+eyZeFXrJ37MX6vF7/PS1hIaAEfwfz9+HP24M/ajnfPRvRQgEJdZ1lIJWi2kN6sGTeMuZGPPvmY51/8F+PGj+fdGe/TrXt3VqxYzs4dO6Jv3+AoMcKBxKApbAoh2Lt3LzffcCOesjL+Hmfjalcctx8updgeT+tBlxEKBnAX5tTy7BG6Tqgwh0D+fkwOFzKClmdcQPH+7YS9brRQABEOItQKwQotDLqG0LSKf/WatWllE7O+pmblpwsAdF3HbDYzbPhwLrviCvr07VNVE/q8XuIcDhRF4dPZs3nisYkMPu88/vnYozGb4k2RntH8FW0aooxBU9lUVZXFP/3EIw89jBYK8o94B78EQ2zRJTKHXosQgpLcAzVFJASqz41aXkggLysyM1jRd6w+oirJMinJyaSmpZGSkkxCQiJOpxOL1YrDEYckSXg8XoLBAKUlpeTm5pJ14AButxtkBXNcPELXUX3lpKSkMGz4cIKhIHM+/4LRo0dz1z13YzabWTBvPnO++IJWrVtz8SUX06FjRxRF4WDWQa4dNQqrzcabb03DlZDw6zNE0VTpWZ2/ok1DlDFoSpvBYJAPP/iAN157HUnTSFRkijSdtsNHI5sslOTs/3VxsyQhC51g7r6K/8oKuhomWJzHgAH96dylM11OOIGOHTuSmdkWq81ao5aTkOr0cxdCUF5Wyq4dO7jttjtw9T4XW1JaVXCudq1bMP2DD5AVmVEjr6R3r548+vhEZrw/g7Vr1nLDmBvp07cvZvOv7oFej4d/PvQwP/30E6+8+m96nHhi9M9W0ZTpWclf0abRp/ydsFgsXDVqFNff8A80SaIoEjIk7I681OoiEgIhKyR2O5X0vgPJOGkgzU8dgi0plXvuu5fxd9/N3y+4gO49ehDvisdqtWKxWDCbzRWxgswmTKbaW2Ucofj4eEwmE5JcMaKrWGyYHS7cbjeqGsbhcHDqqaeyffsONE3jun/8g0suu4xvvv6aZ556ig9nfMCB/QfQNA2rzUb3Ht0JBgJ88/U31R7C4GgxRPk7IUkSVquVO++6ixtvugkl4soW9rkrjkdVbULX8ZUWUpqfTUnugYqaVBeUlJRExGVClhs3nRKN1VpRs2rhEEFvOWUFOWiAz+8jOzsbs9nMuecNJisri2AgiM1m46yzz+Lue+9l/IQJXHzpJbRs2QJZlpEliYyMDBRFYc3q1ahqbad5gyPDEOXviCRJ2O127hh3JzffeismkwnV567oL9YhLiEEQtfQNa2iaSsrHDp0qN6BmsYiyzJOhwN3QQ7lh3NQgwEkxUw4FGb79u0oikL3Hj0QQpCfn48QgqLCQlavWs3KlSvJy8uj3O1GVVV0XScpMQGr1Uo4HEarZ6rGoPEYovydqRRmjx49UBQFNRRoZDQQCUxmsg9m/2ZREmlOI/SKuECShGwyEw6H2bp5C5IkYTabcTgcFBYUoOsaPp8Pu92GJElkHzxIzqEcAoEAfr8fq9Va0URWFBQlhoODQaMwRPkHIEkS8a54JElCD/ob/aFV2WLjUHbTiDIhwQW69uuorqKg6Tr79u0jFArh9XiwWCyUlBSTn5uLK95J28xMunU9gc6dO5GenkooEKC8tJTy8oqPCmW2bYvJEOVvxhDlH4TNVvHpci0UrBjYaYTQJHPTidJms1U5IxAZ4RUCykpLydq3l+LCApDgcP5hCg4fJjcnh0PZBzmYlUV2Vhb5ubkUFRXi8bjZtnUbuq5z3pAhdTbDDY4MQ5R/ELJckXm1kB89HIKGQoJElmdlZWX9JlFWDgzFu1xIulpVU0qKgiRJuN1uduzYwbKly/B6vHz22ec888yzPPrIYzz6yGM88/SzvP3WOyxdugx3uZutW7fy6aefkZKSwsmnnhL1awZHgyHKPwi73Y4kSYQ9ZRRs+pmwp7TCEydGU1Y2WyksKqKsrOyohSlHYgalJCeDplXYEaLCGV2CkpISJk16krlffU37Du1p3qI5QsDu3buJj49nyN+GcHr/0zEpCh/99788++xz+Hw+Lht5BQkxHAcMGo8ROCsGx9Kmz+fjqsuvID8/v2IaQVYwJ6ZhTW+DbLFWxN6J9gAQgvLtK5n2+lTOOOvMoxpU8XjcHM7NZcGCBbw+fSYkNkMPhwiXHiZcko/NauXhRx7h1NNOw+F0YDaZCKsqjzz0EDt27ETTtKoRVpNJISUlhZtuuYWBgwY16Jx9LNOzMfxZbBqijMGxtnkwK4s3Xv8PK5Yvx+/3Ew6HEbKCOSEVW7O2SCZzzfWWQuDdu5Hbx1zPTbfc3OCqjLrweb3k5eawccMGJk58gmAgiECgaxomk4kOHTrw3owZKKaaghdC4PP5CAQCaKqKLMtYbTbsdjupqak1zq2PY52eDfFnsWk0X/9AWrdpw6SnJvPhzI8Yf/fdZGRkYJYl1JJ83NtX4d27iVDJ4QqHc11DCB3JYmP7tm1HPR8oRWK3JicnY7NaGTr0b1xzzdVYrVZO6tePDz76LympKdGXIUkSDoeDlJQU0jMySE1Lq/IMMmhaDFH+wUiSREazZlx6+WVM//ADxt89gZatWqLIoHvL8GVto3zrcjy71uHbvxXNW87+/fvRGxoYqoeKZnHF9zRTU1O5dvQ1nHvuIFwuFza7jTiHI/oSg98ZQ5THEcnJyVx2xRXM+O9/eXzSJM4ZNBCbzQq6ju73oJYXoQe87I/MJR4NlaO+kiRX/C3Abo+jTZs2uMvdR23XoOkwRHkc4nQ6GTJkCK+/8Qa/rF7NhzM/4pkpz/HPRx/hjDPPJBgMsmH9+qNqwsqRkCKyXPH5d1VTsdmstGvfjsP5+Xg8nuhLDH5nDFEep0iyjKIoxMXF0e/kk7loxAiuuvpqRlxyMYqisOjHHwmH6wohEhtZrhg4kmUJoQtUVcVkMtGyZUs8Hg+7du6MvsTgd8YQ5XGOJEnIEYGaTCZOPe00FEVhw/oNqEcpysoNqBJ2YmIiuq6zauXKqCsMfm8MUf6JkCSJ9PR0evbqRXZ2NqGjECWA2WyJzHEKQqEwuq4jyxKaplFwuCD6dIPfGUOUfzIkSeK8Iefh83rZvHHTUa1ftNqsKIpCKBxm7pdfMnnyU7z676noQpCa1rg5R4NjhxEOJAbHq82tW7Zw841jOOvss5jywgtHPI3h9bjJ2r+fcXeO4+DBikXNNrud0/v35/Y77yAtLa1J7jMaw2bjMGrKPyHtO3QgNTWVzZs24/F6ow/HRNd1tIj3jtlswWKxcPOtt/LvqVO57/77G+2dY3DsMET5J8RmszHs/OGUl5ezdPFicg4dwu12Ew6F6nRUF0KgqSpej4eC/Hzyc3Px+wMkJydjtVrpc1JfupzQBYfTUbWKxOCPw2i+xuB4trl9+3ZuuXEMQggSExM5seeJdO9xIm3btiUhMYG4uDjMFguyJOH3+ygpKsbtduPxuMnJyWXH9u2sXbsOi8XCs89PoXefPjXsN9V9Vsew2TgMUcbgeLYZCAS487bb2b9vH4FAAFVVUVW1KpSH2WxGiayRrGyyVp5DxM3ObrczcNAg7hx/F/Hx8TXsN9V9Vsew2TgMUcbgeLfp8/koKy1l165drFi+gu3btlFQUICu67WasbIkIckSrngXzVu04ISuXTl38Lk0b9GiziVXTXmflRg2G4chyhj8GW1qmkYoFKo1VVJZe7rdFSEtG+JY32dD/C/bNAZ6/mJUNkvj4+NrbDab7agWRRv8/hiiNDA4zjBEaWBwnGGI0sDgOMOI0RMDw2bjMGw2zJHYNGpKA4PjDEOUBgbHGYYoDQyOMwxRGhgcZxiiNDA4zjBEaWBwnGGI0sDgOMMQpYHBcYYhSgOD4wxj6VYMDJuNw7DZMEdi06gp/0RERxAIh8OEw2FCoRChUIhgMEgwGCQQDBIIBAgEAkcVRf1o0HWdUChU9bvBYBBVVWsttjZoGKOmjMHxZFPXdVavWcPGjRvxeDy4PR48Hg8etxtVVfH6fBX/93jwer34fT5UTePeu+9m3LhxddqMxZHcZ0FBAYt++ol33nmHNWvX4vP5aNmyJUOGDOHO228nNTUVSZKOyOaxuM8/i01DlDE4nmyGw2EmPv4477z7bp21T/Q+IQRWq5W77ryTSZMmVe1v6vsMBAJMef55pjz/PMFgsOo+JElCkiQ6dOjAhx98QJs2bUhOSoq+vF6a+j75E9k0mq9/EmRZpkuXLpx6yik0a9YMIrVn5SaEqLH9XixcuJCXX3mlhiCJFAq6rrNnzx7uufdeAn5/jesM6qdJa8ri4mIWLlzI45MmxcwYlR+XaQiXy8V/XnuN1q1bRx+qxZHc57Eo3Y61TSEqvpAVCoXQNI0FCxdy3/33U15eXuOa6hzrmjIQCDDurruY/v77MT9ia7Va+WX5crp27drouLJNeZ+V/FlsNk4djUQIgdvjYc+ePezevbvebdeuXY3a9u7dS9D4iClEmoNmsxmHw4HL5eL/zj+fcXfeWWckut+LUCjEwezsmIIECAaDZB082OB5BhU0qShlWWZA//48PXkyF15wAc2bNcNisUBEsJVb9WZX9Q0gNTWVAQMG8MD99/PmG2/QPNJUM6iJxWLh/PPPx+l0Rh/63VAUpVG/L8syDocRfb2xNKkoKz/VdtVVV/GvF17gq7lzeeM//6FVq1YNRlJTFIXLLr2U+d9/z6ezZnH/ffcxbOhQ4uLiok81iOCIi8NiNkfv/t2w2WycftppDdbW7dq1I7NNm0Z3W/7XafJUkiQJi8WC0+mkVatWDDnvPJ556ini7PboU2sgyzI3jRlDly5dSExMxG63YzKZjNI1BpIkwR+YPoqicPlll9G/f3/M9RQO8fHx3D1+PPYG3r/BrzS5KKMxmUx069YNV0JC9KEaSJJE69atDRH+yWjWrBnPPPUUF198MampqcTFxVXFne3evTuTJ03iggsuqFe0BrX5XQJn5eTkMHDQIPbt3x99qAqLxcLyn3+mVcuWNYRZn81omuI+oznebebn53P6gAFkZ2dHHwLAarFwyy238PBDD1Xta8hmJUdynwkJCfh8Pvbs2cPSpUsJhkK0btWKAQMGkJGRUdVsPRKbx+I+/yw2j3lNafDXR5IkHA4HPXv2ZOzYsYy/6y4uvfRSmjdvbvQjjwIjxQwMjjP+kqLUdb1qor3SSTsYDBIOh9E0LaZjw7FE13XC4XCF07jhtN2kCCGqPm5U+b4rHS2aMn2rO3FUf491/ZYQgnA4XPWpwsbyl+lTFhcXV62eyMvLY+26dezfv5/i4mJ0XcflcpGWlka7tm056+yziXc6MZlMMUd4S0pK0CMrM6ica634oyrxK/cluFwIQFNVnBHblccrV3Ls27ePRT/9xP79+3G73SQnJ9OubVsGDBhAampq1TclK2no2X9LnzIYDKLFmMwvq+O9W61WJElC07SqeWUhBAkJCbXSo3oaqaqKy+Wq5X0UPUctql3jSkioslHdXuUHjCrfWXFxcVXGX7N2LZs3b6agoABN08jIyKBH9+7069cPu91Oampqo5rT0Xm+Mg+Ew2EKCgtZt24d+/bupbSsjLCqkpKcTHp6Ol26dKFvnz7ExcVhMpnQNI1333uP7Tt2MHjQIM4666waduvjTy9KESkh165dy7vvvcePP/7I/gMH0HUdKeIUXf1lE/ksXO9evbjwwgu58YYbSExMrPNlFRYWMm/+fFasWFGx8iIQwOvx4PX58EU2v99f9bfX66V169Z8+803dOzQAV3XKSgs5NWpU/nss8/YvXt3jfuoxGQyMaB/fyaMH8/JJ59cJeiGnv23iPLCESMoKCiodnZN6irZX3rxRdpmZvLue++Rk5NTkSZ+f8UqFa8Xr9eLz++vSBOvF7fHg9/vR5ZlDh44UKvwKygo4IMPPyQ/P7/Klt/vx+f3EwwG60zruydM4LFHH8VisaCqKouXLGHqa6+xZMkSysrKativJDU1lYsuvJCHHnqIli1a1LqPaKrneU3TOJidzfvvv8/8+fPZvWdPVSFdaad6HrNarXTv3p0zBgzgrLPO4p577yUvL4/77r2X22+7rcpuTEQDlJSUNHqrj0OHDonOXboIs9Va7+aIjxcbN20SxcXFjbIphBC6roucnBxx69ixwhEfLyw2W5U9q90u+vbrJ64dPVoMHT5cJCYn1/pNi80m2rRtKz6aOVOEw+Fo8yInJ0f844YbhMVmq2E71ta6TRuxdds2oaqqmDd/vujWo0ejr01OTRVTp04VBQUFDT67EELk5eWJdh061LJTuTnj48U9995bZ3rGuq6uzWq3i4U//CB2794t2nfseERpYrZaRVFRUa38snTZMtGiVasjsjNhwgTh8/lEaWmpePyJJ4TT5ap1Tl2bxWYT/QcMEJs2baqRhnVReX/5+fli0pNPiuYtWtS6R6vNJlq3aSPOHTxYDDv/fNG1e/ca51RPH0d8vLj/gQdqPX99W+3q4U+CqqosWbqUs845h3ffe49QKFRVC5nNZu6/7z6++Owznp8yhenvvst777xDWlpaDRtCCPLy8rjhxhuZ/NRTBAKBGsdNJhP9+vXjnHPOIamRy45ExCf0venTuWrUKPbs2VNn7VgXHo+HSZMns2zZsuhDTc7yZcuY++WX3DZ2LC1atIg+DBHngN69enHP3XezeNEievXsSVxcHMOHDeOkk076zd5WKSkpDB82jN69elW1DhpDTk4O4+66i2efe45gMBh9uE6EEKxZu5YHHnyQoqKi6MO18Pl8TLj7bp597jmKiour3qEkSTTLyGDq1Kn8smIF33z9NV98/jnr1qxhxc8/c8EFF2C1WGq0znRdx+P1Rv1C/fwpRRkOh1mxYgWXX3EFBw8erGpOVDJw4ED+cf31OJ1OzGYzFouF0047jdvGjq3VdBGRPt/zL7zAW2+9VUOYJpOJyy69lPfeeYeF8+dz9tln17i2LgKBAC+++CL33ndf1WLfQQMHcuXIkQwYMCCmr6gQgpKSEl5/441a/a+mJj09ncHnnsvkiJ9ydaxWK6eeeiqff/opX3z+OXeNG0fHjh1RFAWbzcYj//wnsz/5hB8WLOD84cOr/JuPlPS0NCY/+SSfzp7NrI8/JiMjI/qUWuzbv58bxoxh1uzZFY4pXbty7qBBDB06lK5du9bZDalE13WWLlvGRzNnxiwohRC8/p//MPerr2oU9gDxTieTn3ySCy+4ALvdjsViwWI2Y7Va6dWrFzOmT+eFF16osXZU1/VGFx78GUWp6zq7du/m8pEjqwZiqmO32Xhq8mTi4+NrCNBisXDWmWcSHx9f4/xKgsEgk596ity8vCqbkiRhMpmw2+00b96cV195hczMzOhLa+DxePhk1iycDgeTnniClStWMHvWLF5/7TW+/OILPp01i5SUlFqFQyW6rrN+3Tq2b98efahJkSQJRVHIz8vjp8WLIVIztmnThg9mzOCjDz/k5JNPJi4uDovFUpXZpYgbZVxcHJmZmTw/ZQoDBgyIst44ZFmucsk8+eSTeeapp2KKCuC7779n7dq19OjRg3nffceXc+bw9ltv8Z/XXmNOpABRYtjw+/3M+fJLPB5P9KEqdu/Zw5vTphEIBGqJNyExkb4nnVRnzS7LMna7ndHXXsvLL79c1brSdT3m79Uiuj0bvR0J0ddWbtu2bRMdO3Wq1c6vvjni48X+AweErusxbe7evVv0HzBAWO32WjbMVqvo1adPvfd96NAh0T5GX8pis4krR40S2dnZddrweDziHzfcUOu66K1d+/biu++/F7m5ubX6yKFQSPz71VeFLS6u1nWVm9PlEo8++mitZ4/eduzYITLbtat1fXU7//znP2s8Q/Xrt23fLk4fMEDEOZ0iISlJ/P3CC8XmzZtFfn5+jWtioaqq+Perr9b7Piq3vXv3Rl9aA13XRVFRkejQQD6JczrFyCuvFDt27BAFBQW1bLjdbjFw0KCY99MmM1Ns3rKlVnpWbq+//rpwJSbWus5stYrMdu3Evn37qn4z+trKLTc3V9w5blyVnctHjhSqqta43/qov0g5DgmHwyxatIjNW7bUqiErade2bb1+lnFxcWTEWAomhGDx4sUUFRdHH4JITdJQTel0Onn88cfp07s3NputVo1oMpm45JJLYq6aCYVC7Ni5s95nbAry8vK44YYb2LRxI/FOJw89+CAvv/QSzZs3P6LmaGWTNvo5jxRJklAirZJY9OzZkwcfeIDU1NRatZUU8SwaMWJErWPV8fn97Nm9O3p3FT8vX17n6DORKZhXp07F30AkBZvNxm1jx9KtWzcA1MgceWP4U4myrKyMaW+9FTNBevToUW+GVxSlwfWZZWVlFBUW1mq2VNJQ5rPZbHTu1KnejC1JEhnp6bSIMTQvhMDj8dSbMX4re/bs4drrrmPDxo2kZ2Tw0ksvcfWoUSTVMzX0eyE1In379O7d4Hxjl86dkWPY0TSNw4cPR++uwu121/v+g8Eg06dP59777mPHjh0x82JKSgqXjBhBSkoKJpOpXpvR1P9kxyEbN21iV4wSDqBly5b1vjBJlmuNwEYTCoWq5jmPBlmWG8xYkiSRFonwVh/VJ+ibCiEEmzZv5uZbb2XLli2EQiFGXnEF/U8//TePpP5eyJJU7/utxOVyNbikLZZAYtX8QgjKyst5b/p0hp1/Pvfefz8fzZzJrt27KS8vr1GQKorCiBEjeP2117j3nnti1t7Vif10xxGqqrJhwwa8DQwtZ2VlsWDBAr6fN4/v583jm2+/5YsvvuDzL77g66++IisrK/qSGgghyM3JaXRT42ipr4l9rNB1nVWrVjH2ttvYsmVLVTzYD//7X/bs2dPkBcAfSX2Caiy9evWqt7VVSSgUIjs7m1mzZnH/Aw9w6aWXMvb223lz2jR++eUXysrKUFWVlJQUzjn7bPr169egzUr+NKIMBoNs3769wczz6tSpjLrmGq688kquvPJKrho1imuvu47R113HjTfdxKKffoq+pBZqE/tL/pGISF982bJlXH3ttezatatGgZOXl8e/XnqJ4pKSGtf9LzN48GCsVmv07joRQhAIBMjNy2PevHk8MWkS14wezc233sqPixZRUlJyxAX8UYmyct7F5/MdsbPt0VJZMjWE0+kkOTmZ5JQUklNSSE1NJT09nfT0dDIyMmjRogWtWrWKucU7nQ02kf4MCCEIBYMsWbKEK0aO5EAdzXJd11myZAkzZsw4orm0vzI9TzyRU04+ud5xgVjouk5paSk//PADN918M+PuuouDBw8eUaT6I8p5QoiKxax79zL1tdcYP348T06eXFVdR7/wpkTTNNxud/TuWjzz1FMsXbyYn5curXeb9913MbeRI0c2uv1/PKPrOj8tXszlI0dSWFRUb+3v8/l4+5132Lp16zF9h38WLBYLr7/+Oq1atfpN3Qyv18u8+fMZedVV7Ni5s9E15hGJ0uv18sCDD9J/wAAeePBB3p0+neemTGHI0KEMGTqU/QcORF/SpCiNEEooHCYlJaWqdqxrS01NjblVX4XwZ0ZVVdZv2EAwGGwwwFZBQQGPTpzYqILvf4E2rVszd84cevXqhdVqPeqWk67r7Nu3j1vHjq3XYT6aRv+Srus8N2UK78+YUct4OBxm48aN3HTzzTGHiH8LJpOJhAbi/BDxizRK+wokScJut/PiCy9w9dVXxxxoEEKwfv16npsy5XfpjvwZ6NSpE3PnzOHhhx4iLS0Ni8WCoihHXGALIdi0aRNvvvVWva2V6jRalEVFRcyaPRufzxd9CCLNy+3bt/PTTz816oejkSQJR4xhebPZTIvmzaN312Lzli2Nbib81TGbzYy58UZuuOEGnn7qKTp06BAzQwWDQT77/HNWrV4dfeh/BhGJS1yZh1NSUnjg/vtZvXIlr7/2GsOHDcPhcDRq6qs6Pp+PuXPnNqrfLicmJhJrKy0tpbS0lOzs7Aa964UQHMjKIiEhoYaNOIeDcIzSt7JEVxSFsrKyqt8sLS2tstGsWTN69erVYELs2rmToqKiGjait+hnrG+Lvq6srKzWSpJoJEki3uWqZSvaZkO1UVhVSajj+upbQkJCzGZVZUpVtmyefeYZ7A3EaC0uLmbC3XezZ8+eWs9f3+aIi2vwvSQkJNS6rtZWVtZggWq1Wmvkr1o2SksbbIJLEe+u6PRMTExk5apVXDRiBC++/DL5+flVNi1WK+cPH86bb7zBujVreOvNNxl11VV07NAh2ny9FBYWsmPHjlr3G73V/0ajaGztV1fH2ON2x/zAiyzL9O3TJ+aLVRSFE088EafDEX2oBvsPHMDt8TT6fqujR8J1HM21xzuSJHHaqadyxx13xBzuF0KQnZ3NlClTGhTIX5GcnBx+WryYqVOn1lipI0XyqaIouFwuhg0bxjNPP82qlSv55uuvGTRoUMzuAZEVRNmHDkXvrkWjRdkYFEWh30kn1RLXmjVrCMUYEjaZTAwbOjR6dy369ulDqwY+9uPz+XjjjTfwN1Cj1cXKVas4e+BA1m/YcERD2H8WFEVhwvjxtGvXLmYGCoVCfDJ7NosWLYo+9Jcnzm5H13VycnKY9emndY6RSJEVNhaLBYfDwcBzzuHTWbN49JFHYkaLt5jNpKamRu+uRaNFGS20aEwmEwMHDuT000+vca6maXwye3a9zT5JkrDZbJx33nnRh2qRnJzMnXfcUWdtXIkQgo8/+eSIB3x27NjBFSNHsmnTJq4aNapBd74/K4mJiXw4Y0aFK1o9VE59TbjnnpghQ/6KVPYVNU3jpZdeYvfu3Q3mI0VRcDgc3HH77SQnJ9erlXiXi1YtW0bvrkWjRRkXF4ejnqajyWQiMzOTV156qZZg8vPz2bplS719KKvVyrg776z65mIszGYzQ4cOpWPHjtGHalBWVsaYMWM4mJ3dYBNMCMHqNWu4+JJLqjLgLTffTNs6VoOIxjbjG3FOw2f8duq6X0mS6NKlCzeNGRPzUxK6rlNQUMDTzz7bYBo2Bn8daxOPBtEE39+sK10qsVcbbCwvL+fOu+4i+9Ches+vjtPppEePHnX28y0WCyf26NHgKhiORJSJiYl07ty51qS62WymXbt2vD99Om3atKlxzO/389jEifWWtmazma5du3LVlVfW+SDRSJJEeloab7z+OmkxmgG6rrNz1y6uu/565s6dWxXxrBIRiTZwuKCAKc8/z8grr2Tvvn0AjLjoIq4eNarOxNM1jZycnOjdNQgEApQ2MB8lhKCstDTmi/Z6vTH74URGS+sr7Iikw8GDB2v9jsVi4a5x42jfoUPMdNc0jU8//ZQ5c+bUK0xN0/D5/Q3WJksWL26wSyB0vd7R/Ur2Z2U1OIJZ1+Lk6oTDYXbXE6bFVG3KQ9d1du3axfjx48nKyqo3DSpRVZV9e/fWaTctLY1bb7klZnpXokycOHFi9M7qVDY7TSYTHTt04IcffsBdbRV1RkYG77/3Hp07d66RkUtKSnj5lVd459136+zfmc1mOrRvz7Q336RlPTFiiHjsV0dRFFJTU+nSuTNLli6td0W3rusUFRXx46JFLF6yhPXr17N5yxbWrVvHz8uX89FHH/HCCy/w+RdfUFxcjNls5oILLuDlF18kOTkZWZarnl3TNPx+Pwezs3nxpZdihurQI+EIe/XujdVqrTGvpes6ZWVlrN+wgWlvvRVTUF6vt2oZmCkSCpNqBUpZWRnTp09n4Q8/1JvZhRDk5edzYo8eJCcnYzKZqlaD2Gw2WrZsyfz58+vsN1WiaRpr1q4lOTmZZs2boygKiqIgIj6fBw4c4MWXX+ZAA44jGzdtolOnTiQlJWEymaoyZ+XzlJeX88WcOcydOzemwAsKCshs04Y2bdpgNpsJVft+qaqq+Hw+Zn78MStXrarXjhCCQ4cO0btPHxISEjCbzVX3cygnh49mzqx6N5qmkZeXx8qVK2nZogUZGRk13O8q86cQgqVLlzLt7bdr3BORVSu33nILg889t1alVhdHFGKych7rqaefpqCgAD0ST/Xmm25i8ODBtG7dGq/Hw5atW/n0s89YsGBBrVJLkiTi4uIYMGAATzz+OG0zM2OWHon1hFkMBoP8uGgRjz72WI1VD/VR2TmXZRkRCagrhECSJFJTUxl97bXcd++9uFyuqvspLS1l586dzPnyS/bv38/PP/9cI1xIfdjtdtq3b8+QwYMZfd11dOvaFb/fz7Rp09i0eTM/LV7MgQMH6ixRK5Ei00RdunThnLPPZuTIkfTq2ZMZM2awecsWNm7axMqVK/H5fDHtyLJMfHw8/fr1o+eJJ/LQgw/icrmQJAmPx8NNN9/Ml3Pn1spI0TidTjp36kSfPn0466yz2LFjBwcPHmT58uUcPHiwwY/7SpJEQkICffv0oX///oy+9lrsdjvz5s9n1apVbNu2jbXr1sUs8Khm55RTTmHY3/7GJZdcgtlsZtv27cyZM4c9e/bww48/4vf7Y6aLyWTC5XJx+umnc8rJJ3PH7bfjdDpZ9vPPDD//fPx+P2azGS2yhE6WZZKSkhg+bBjDIvGAbDYbLpeL4pISli9fznPPPce+/furalRZlklOTuaO22/n6lGj6g1FE80RiZJIzblgwQL+9eKL7Nm7l0AggMlkIj4+HqvViqaqlLvdBIPBWmK02+20bduWi0eM4Jqrr25UhLj6REm1UuxfL77I1998Q25ubq1CoD4qh7ZPOukkxt1xB2effXZVsOFKSktL+WLOHMZPmNBgpq0Lp9PJq6+8wmWXXUZJSQmnnHZag83furDZbDz7zDNcN3o05wwaxPr16xv1jHWxdcsW2lT7utnGjRu59PLLOdSIofpKLrrwQr797rsGm5H1kZGRwReffUZSUhLjJ0zg2+++iz6lUfTo0YNPZs4kLi6Ojz/5hPsfeCD6lEbhcDhYv24dLZo3Z83atZw7eDB+v58RF12EJEmsWr2agoICgsFgVT6Oj4+vyr8lxcWUlJZW5Xkl8jHdHt27c/eECQwcOLDBSqM6RyxKImIoKCxk+vTpfPfdd+QfPly1WqSyFqmsmcxmM/Hx8TRr1oxLLr6Yq668ErPZ3KhqnAZEWYkW8Sb6/Isv+ObbbykuKqLc7SYUCtWo1eRIoKbUlBQ6de7M7WPHcsoppxBXz+R3aWkp69atY+bHH8dsahIZsIrGarVy1VVXcXK/fvh8PiY9+WTMFe/RVNo0RaLqDRgwgOemTKnVTzwScTz37LM1RgiDwSAzP/6YX375pcZ5sWz27duXTZs2VWW0up69LiptJrhc3Hb77Tji4pg5cyabNm+OPrVRNlu2bMk/rr8ei8XCqlWrmDV7dvQpNajPpsViYeLEiSQmJLB9+3auve46dE3jvffeIyU5maKiIr6YM4f5CxaQn59PeVkZoXAYPRLwm0ghb7fbSUxIIDMzkzFjxnDmGWdUtbzq0lF9SCUlJTFFGUsUuq7j9XopLi5m1apVrFm7tmpQx2Kx0KZNG3qeeCLt27cnISGhakV3LJvRNPZhKm0Gg0Hcbjder5e8/Hxyc3OrEi8jI4OWLVoghCA+Pj7mXB0NPHs0R3qfjcGw2TBNbVPXdSwWC1Jkqq56HgmFQrjdbtxuN4dycsjPz8fn82EymWjRogUpyck4nU6cTmetvHUk9/mbRBlNYx4aw2b0rnoxbDbMX9Fm/SMsBgYGfwiGKA0MjjMMURoYHGcYojQwOM4wRGlgcJxhiNLA4DjDEKWBwXHG/wOyzm5CYAT0vwAAAABJRU5ErkJggg==;" vertex="1" parent="APwTUMDmVfPKR00U0lOk-10">
          <mxGeometry x="182.56" y="46" width="117.44" height="80" as="geometry" />
        </mxCell>
        <mxCell id="APwTUMDmVfPKR00U0lOk-2" value="EC2" style="sketch=0;points=[[0,0,0],[0.25,0,0],[0.5,0,0],[0.75,0,0],[1,0,0],[0,1,0],[0.25,1,0],[0.5,1,0],[0.75,1,0],[1,1,0],[0,0.25,0],[0,0.5,0],[0,0.75,0],[1,0.25,0],[1,0.5,0],[1,0.75,0]];outlineConnect=0;fontColor=#232F3E;fillColor=#ED7100;strokeColor=#ffffff;dashed=0;verticalLabelPosition=bottom;verticalAlign=top;align=center;html=1;fontSize=12;fontStyle=0;aspect=fixed;shape=mxgraph.aws4.resourceIcon;resIcon=mxgraph.aws4.ec2;" vertex="1" parent="APwTUMDmVfPKR00U0lOk-10">
          <mxGeometry x="115" y="46" width="65" height="65" as="geometry" />
        </mxCell>
        <mxCell id="APwTUMDmVfPKR00U0lOk-7" value="IAM" style="shape=image;verticalLabelPosition=bottom;labelBackgroundColor=default;verticalAlign=top;aspect=fixed;imageAspect=0;image=data:image/png,iVBORw0KGgoAAAANSUhEUgAAADkAAAA5CAYAAACMGIOFAAAAAXNSR0IArs4c6QAAAARnQU1BAACxjwv8YQUAAAAJcEhZcwAAFxEAABcRAcom8z8AAAl8SURBVGhD7ZoJcFPXFYYfaUgHaph0MkOn0GTaQpluM8mQEDpN0hAwmwNeMJsNhMVsYTGEndJhDYQtkGCzg6GELIVQkrAkBFIoMYQ6EHZb1mrJ2m1ZkiXL2v/OPbIVv2tZloQhQPhm3tjzznlP73/n3HPPvZKAHwECf+JB5KHIB4WHIh8U7pjIYDCAYCDAn/5BaDGRXo0Z9j2nYJqxE9qUlVB3nw/1s3OhTV4K46RtsG49AY9Ew192V7htke7rZTC9vh2KJ8ZCIvRDsfAySoS+KBVeRakwEBJhAIqFV+iQtcmCLmM1nF9c5m9zR0lYZNDnQ+XyjyBvNxIlQjKJUf5qMozjt8C66TM4jnwD55ffofpgISyrDkE3aBVkj44gsUy8fvh6eJUm/rZ3hIREBqxO6DPWQCL0p+ipukyBbfsJ+CvsvKsId7EG5lm7IWs9jMSy62qLpLxbixO3yEBNLXQpb5I4lpIsIj59Je8WFdf5YhqvJUIvKDqOh/uqkndpUeIWaXp9B0WQpZwpdydvjhm/xQ5tygoSWvbHmfBX2HiXFiMukc6jRSgV0iARUqAfsp43x42/0g51tzmUusZx+eHzQZ8fXqUBnlsa8rldYhYZ9HiheXY+RVHZaSJ8hireJSFqL8sgSxpOL48VK/v+/5Bwxc/HQN5mFJS/zIE+az3cl+X8pTETs0jnZxdRKqRCIryKqrc/4c23RcXC/VSd5W1GQipk1E1BqZA9ysSnhqaftsNhf+8Mf2lMxCzSMHYzFRvFE+Pg08VXaJrDV15BkWPjvFQYBF3qW3Ce/A5euR6uczdhGLmJhoj0sUzUnLrKX94sMYkMuNxQ/XYqvWF9xlre3CJUzNtHQ8E0dQdvIirm76f5WP3n2Qg4a3lzVGIS6SkphyJpND1E5bIPeXOLEHR74b6iBIKR+91ArRtlf5pFL7r6UCFvjkpMIqk4PMLGxyDYtnzOm+8alUs/QLHQE+aZu3hTVJoVGXR5YHn7CKRCJhUB27aTvMtdw3msiMam8snJqNpwBO4rCt4lIlFF2vefgfrp2SgV0qm7YRXQceg879Ys7ltqWoWYpmyDftg6mKbtgG3rCTofD94yExU+lrKsiZC2Hgp99nq4r6t4VxERRbI50TgxHxJhIEqEPpA9MhSalxajcskHCLrcvHuTeBVGGMa/C1m7bCoaJULvBn/7Qt4+C4aczfAqjfylTeKRlMOy9mNo+yyHTMik9JUlZcG25xTvGiaCyCCME7eEe1Nt32VwFd7inZrFeeJbKDvlkCB2n7I/zIRh9LswTdsO/fANUD01mTKDiVV2zEkoQ2ovlEA3mC0UBoTqRcFp3oVoJJJ1HGzCZw9mHJ9HUY2XmjPXIUsaQVmg+vVU2Pd+hYDNIfLxGSywrD4EebtsqtrSn2TCcfiCyCdWLGsO0zPL2g6L2BmJRAYcNVB1nYESoR80PRYh6PE0NMcE6zXLfsfukQzNS4vgU0dfM7rOXIeiA1twDwi1iwk2Gqbc3SgRekLXdyXbexHZRCLZm2Rhl7ZKh/PYpYammLHmH6MIKjtNgFdh4M0RqT54niLJhFatPcybY8JntkLxi/HUA7u+LhbZRCLNswpoDJV1zUXAHXuBaYi291K6h/mNAt4UFc1fF9P4LO/5j0aRiBXj2HwUC39Dxdx9ovMikfr0tfSA+sx1DU/HhfqZ2ZAIfWHddpw3RcUwahOJLOs6kxbmiVC18VPKIk33BYDfHz4vEqkbsJLmH8O4vIan40LdbS5VZtvepkt6JAwjN4ZEds5FwO7izTFh23WSCpDi8THwGb9fCoojmbaGCoYufU3D03FRL9L+0TneFBVDdp3ILrkIVCcm0rrlOHVEisdfE613xWNyBqtQyVB1np5wyrC9GybScexb3hQVtpwKi6xJrB6Y5+4LTVudp1E7Wo9IZPW/vqYuRyqkw3k8voesJxTJ/nB+eYU3RSWcrkykI/5IBv1+qJ9bQEHia4pIpN/qgOrJKRQJzQuLaW81FljDYJ6+G5oX/w550muQCkOgfmYedL1WQPvy0uaPXsuh7DCBFgFsy0Pzl0Uwjt0Mv8nKf1STOD6+AGmrDJQKKbDtFC8iGnU81k1HKa9Zx2OetZc3R8RTqoWs9Yi69iq1bpukX12fGtsR+szQtWyuZmlnPxDbdof7hhqqpyZRBql+Mw1+i7i7aiSSRUXbb0Vd75oK4+Stze6YeYrLoWg/hiKhS3sLxpx8GMdtFh8T8mGasYs2l80zd8M4aWtjn5w86DPX0k472wqx743ci9YTrPXA/t5ZqDoygSm0P+T45BverbFIhs9kgeaFhSSUXazqMhWVKz6E64IEntJyeKVaUU8b2jlgaZpJ9qaovSSDbf9p1Jxuep8mUGmDPGkkTQX2f34ltjlccJ29AcehQpjnFNDuIVsGhnrfwbDmHRP51xNRJMNvqYZxbB4VITa5042EIZC3zYL8Z9kUvXoainRfi7C2CwRgnrYLpa3YvUJpWZ68hJr0etj/LO1rTl6GvA1r2huLdBeVUtvGxl1oTdkntMLp9gYcR4tEvg1pUmQ9zs8v0TdRig6sL2RjjX3/MQDua98veEUiI2z529//b106DYY8aTS9LJYlpklbwz7Gce9A+tMMEigThtFn8SJrL0oocvL2o1DWZTp0mWtgP3C22WrcrMh6vGoTHJ9epA9mY8VvdYZtzYkMdVJ9YBixER65nha87GWV/T4XQW+oguvSVtECmBWdpkQGqpyoOX0N7hI1AtU1Ils0YhYZjeZElr+yhCqoIfsd+M1W6AatpnRTPz0n3GO6Cm/C/v5Z2qySCkNJLC8yUe6KSHvBqXC6sr6S+bFIWtb9m3eFR6qldKbqej+JhD8Ay8qDkLVhU0M6/a1cfEBUodna031ZAduu03WRvN9E1qEbyMZmMrR9lvEmGIZvoGjLhKFNjslEubsi01aFRPZfwZtoq5JNVSylZULoi577UmR578W4KfSA5sWFvAm1VxVwHC+ib8zu+XT1yvS8OYyr8AZse76A69wN3hTGI9Xdo4WnWANFu5DIqryjcJ64BMfR/zU62Fal60IJas5eb2RjB2s8WMVl45KmkH3Re9dYaRmREi1kj2WFf7sTOkJ7t/EdoWulQlpoFVIQ3xZKU7SISLYKN03fibLnZkP9/AKon59f9zfeYz7UPRZA3X0etKlvwittOvXjoUVE1sN+S0e/qbvdo4V/k9eiIu9VHop8UHgo8kHhRyHy/0yt8orBRnvXAAAAAElFTkSuQmCC;" vertex="1" parent="APwTUMDmVfPKR00U0lOk-10">
          <mxGeometry x="300" y="46" width="57" height="57" as="geometry" />
        </mxCell>
        <mxCell id="APwTUMDmVfPKR00U0lOk-33" style="edgeStyle=orthogonalEdgeStyle;rounded=0;orthogonalLoop=1;jettySize=auto;html=1;entryX=0;entryY=0.5;entryDx=0;entryDy=0;" edge="1" parent="APwTUMDmVfPKR00U0lOk-10" source="APwTUMDmVfPKR00U0lOk-13" target="APwTUMDmVfPKR00U0lOk-11">
          <mxGeometry relative="1" as="geometry" />
        </mxCell>
        <mxCell id="APwTUMDmVfPKR00U0lOk-13" value="Jenkins Pipeline Steps" style="swimlane;whiteSpace=wrap;html=1;" vertex="1" parent="APwTUMDmVfPKR00U0lOk-10">
          <mxGeometry x="22" y="282" width="280" height="252" as="geometry" />
        </mxCell>
        <mxCell id="APwTUMDmVfPKR00U0lOk-14" value="&lt;b&gt;System Info&lt;/b&gt;&lt;div&gt;&lt;b&gt;Test SSH Connection&lt;/b&gt;&lt;/div&gt;&lt;div&gt;&lt;b&gt;Install eksctl on EC2&lt;/b&gt;&lt;/div&gt;&lt;div&gt;&lt;b&gt;Check IAM Role on EC2&lt;/b&gt;&lt;/div&gt;&lt;div&gt;&lt;b&gt;Create EKS Cluster&lt;/b&gt;&lt;/div&gt;&lt;div&gt;&lt;b&gt;Install MySQL Database&lt;/b&gt;&lt;/div&gt;&lt;div&gt;&lt;b&gt;Deploy Application to EKS&#39;&lt;/b&gt;&lt;/div&gt;&lt;div&gt;&lt;b&gt;Check Deployment Status&lt;/b&gt;&lt;/div&gt;&lt;div&gt;&lt;b&gt;Test MySQL Schema&lt;/b&gt;&lt;/div&gt;&lt;div&gt;&lt;b&gt;Get ELB Endpoint&lt;/b&gt;&lt;/div&gt;&lt;div&gt;&lt;b&gt;Test Application via ELB&lt;/b&gt;&lt;/div&gt;&lt;div&gt;&lt;b&gt;&lt;br&gt;&lt;/b&gt;&lt;/div&gt;&lt;div&gt;&lt;b&gt;==== Pipeline execution completed ====&lt;/b&gt;&lt;/div&gt;" style="text;html=1;align=center;verticalAlign=middle;resizable=0;points=[];autosize=1;strokeColor=none;fillColor=none;" vertex="1" parent="APwTUMDmVfPKR00U0lOk-13">
          <mxGeometry x="13" y="39" width="249" height="199" as="geometry" />
        </mxCell>
        <mxCell id="APwTUMDmVfPKR00U0lOk-16" style="edgeStyle=orthogonalEdgeStyle;rounded=0;orthogonalLoop=1;jettySize=auto;html=1;entryX=0.001;entryY=0.599;entryDx=0;entryDy=0;entryPerimeter=0;" edge="1" parent="APwTUMDmVfPKR00U0lOk-10" source="APwTUMDmVfPKR00U0lOk-1" target="APwTUMDmVfPKR00U0lOk-5">
          <mxGeometry relative="1" as="geometry" />
        </mxCell>
        <mxCell id="APwTUMDmVfPKR00U0lOk-19" style="edgeStyle=orthogonalEdgeStyle;rounded=0;orthogonalLoop=1;jettySize=auto;html=1;" edge="1" parent="APwTUMDmVfPKR00U0lOk-10" source="APwTUMDmVfPKR00U0lOk-17" target="APwTUMDmVfPKR00U0lOk-13">
          <mxGeometry relative="1" as="geometry" />
        </mxCell>
        <mxCell id="APwTUMDmVfPKR00U0lOk-6" value="Role" style="sketch=0;outlineConnect=0;fontColor=#232F3E;gradientColor=none;fillColor=#DD344C;strokeColor=none;dashed=0;verticalLabelPosition=bottom;verticalAlign=top;align=center;html=1;fontSize=12;fontStyle=0;aspect=fixed;pointerEvents=1;shape=mxgraph.aws4.role;" vertex="1" parent="APwTUMDmVfPKR00U0lOk-10">
          <mxGeometry x="357" y="52.5" width="78" height="44" as="geometry" />
        </mxCell>
        <mxCell id="APwTUMDmVfPKR00U0lOk-8" value="Policy" style="shape=image;verticalLabelPosition=bottom;labelBackgroundColor=default;verticalAlign=top;aspect=fixed;imageAspect=0;image=data:image/png,iVBORw0KGgoAAAANSUhEUgAAADYAAAA2CAYAAACMRWrdAAAAAXNSR0IArs4c6QAAAARnQU1BAACxjwv8YQUAAAAJcEhZcwAAFxEAABcRAcom8z8AAAVpSURBVGhD7ZpbTFRHHId9aR9stEUjoKDITasoVlQk3mppbKtoVGyIQqN4S7209pLWtkCrGB5s0ocmfelDa1VUhLgqtUrUtja2pvWuu2eX3YW9sbAguldg77u/5swC2Z0CGvYMBxu/ZB74zzCcj7mcOTMzAv9TRtCBcIJeL1xyBWxnzsF6UgJrzWlx00kJbGdq4ZJx5NkGol+xoMcDy4kaKGdmg4tPBjchdXik2CTUZ8yBufIEgm43/di99CvmvH0HDYuXQZE8HZrla6ArLIZu/SZx04ZiaJavhSJ1BtQ5S9F1/Qb92L30K2aT1EI6ciy0qwvgVqnpbNHwGJuh37AJ0lHxsJ35mc7upX+x6lO4/9xoGN7ZCq+xmc4WDb/dDuOuPZCOjIXt9GDEaiS4//yLMBRtgdfQRGc/nmAQAbuDjkaN32qFccf7kL4QJ4KY3w/zT5VoLS2HW6Olc6NCPLFAAOZDR8gAlydnwCo5S5eICnHEgkGYfzyC+pdnQ56YDlNpObzGFrpUVIgi9ohIZYFLSIOp7AB8j8x0kagRWMxIYi5OTlqh68YtujjMh46ifvpccAnpMJXsZyLFI6xYU2i6by0rhzRmAnlJuqRcb1nS/TK6pUrL4TdbwmoSFoHFQi3mvHEL2uVrIY1JhHblOjjv3of5cCWUmdmQ892vZD/8FitdlaAIKxY2xvgFqCYvH9y4JDQsfQv1M+ZBPmkqTF/sg99ii6iDBczEePhuqMlbC+mYRMgTp8BUsg8+C7vuFw5TMR5eTl+4GaaycvjMbCaKvmAuxuO3OxBwuegwU4ZETAyGhVjQM/BX7mAQXcxRdxnt330v+ItaVDH7hUtQzsqBIj0T1upTdHZUiCZmP38RyqyF4OImo2nrLngaGukiUSGKGC+lyloELnYymrbvhldnoItEDRMxj8EI8w+H+9wDsV+4CNXcRZARqffgYSDFI6xYzyL4wEHIYhJgKH43Yh+EtNS8xZDFJpGW8ujZSPEILBZaBNtqz0M9fymkL02AYetOIuCouwRV9hLIxk1C07bd8OqfrNsOFmHFwsaY49crRE42JhH6wmKo5r9Kup9h2y549KF/AEuYifE4Ll+BOuc1SEfHh1qKH1NPOMFEC1MxHsel36B5czWMO/bAo9PT2cxgLsbjUqrga22jw0wZEjExeCZGB3p4JjbEMBMLdHbA9ksdvM19n8B4NFqyvOIPDlnATKz9m2+hSJuJlg/3wvegPeJ3XOoGaFcVQJW1ALbacxF5QsFMzHL4ODm+lY9PQfPHn8P38CGJuxsaocsvIquQxtwV6PzzWlhtwsFMjD94sBw9DuUrOeRMuOWTEnRevwl9wUZwccloXLYSHVf/Cq9KUNiJdWM+WgX1glzIk6ZBOWs+5PxZdV4+Oq+yaakemIvxtFV8DUX6THDxKVBmzB3wDwkFczG3sgH6oi3kIEI+cQoUKRlo+bQMvvbQmGMFUzG3UgVdfiFZ2Te+sQptFQehmrMQ3PhUNH/0GbxtDyLKCwkzMeede9CtK4Rs7EQ0vr4Cndf+IXFLVQ05deEnlOYP9pL3GQuYibV+VUG+oPua0i3Hq0PHtBOnwnpS2G23HpiJOW/dhWlvKTp+/yOifA/8NSXTlweeks0caowFuroifqYJdHTSIcFgKiYm0YsN5ytHO6O5ciQ5Sy6J6dash1v53w1SsfAYjdAXbYZ0VNzgLok5b96GemEu5CkZ0Oatg2HjdtItRU0bt0O78m0o0jKhzl6Crr+v04/dS79i/PeU+cgx1E+b3X0RM214pLgU1E+dTe6VDOoiJg8v57wnhbVGAktlFSzHqsVNlVWwVkvINYzHfcgOKPY08y+Yeq67n5FG9gAAAABJRU5ErkJggg==;" vertex="1" parent="APwTUMDmVfPKR00U0lOk-10">
          <mxGeometry x="441" y="46" width="54" height="54" as="geometry" />
        </mxCell>
        <mxCell id="APwTUMDmVfPKR00U0lOk-20" value="EKS" style="sketch=0;points=[[0,0,0],[0.25,0,0],[0.5,0,0],[0.75,0,0],[1,0,0],[0,1,0],[0.25,1,0],[0.5,1,0],[0.75,1,0],[1,1,0],[0,0.25,0],[0,0.5,0],[0,0.75,0],[1,0.25,0],[1,0.5,0],[1,0.75,0]];outlineConnect=0;fontColor=#232F3E;fillColor=#ED7100;strokeColor=#ffffff;dashed=0;verticalLabelPosition=bottom;verticalAlign=top;align=center;html=1;fontSize=12;fontStyle=0;aspect=fixed;shape=mxgraph.aws4.resourceIcon;resIcon=mxgraph.aws4.eks;" vertex="1" parent="APwTUMDmVfPKR00U0lOk-10">
          <mxGeometry x="541" y="336" width="57" height="57" as="geometry" />
        </mxCell>
        <mxCell id="APwTUMDmVfPKR00U0lOk-9" value="ELB" style="shape=image;verticalLabelPosition=bottom;labelBackgroundColor=default;verticalAlign=top;aspect=fixed;imageAspect=0;image=data:image/png,iVBORw0KGgoAAAANSUhEUgAAADQAAAA3CAYAAABD7GlFAAAAAXNSR0IArs4c6QAAAARnQU1BAACxjwv8YQUAAAAJcEhZcwAAFxEAABcRAcom8z8AAATTSURBVGhD7ZYLTFV1HMdPk1emK0vTQLAQELMZvgDF0mTUas3hnJqzsrTaVBC5XiVtlcum3AsalPmYVjMHzRVppjaXmk/UfAUqw8AHIKiAKPecy72X+/i0czCDc0lNr9uxnc/23c7+93/+v//nf3535wj8zxDUA/c7upDW0YW0ji6kdXQhraMLaR1dSOvoQlpHF9I6utA9weNWj9wx7Qs5rLhrSnGe3ofz9H7cNaeVsXuF52o1ziMbcFeX4GlqVP/8n/AS8tRV4Cj4GGl+DOKsp5RIH8RgL1iA+0qlerpPcFUUIc17Fmlef2x5s3Ee34K79iweR5N66i1pIyRv2LZiMmJqKGJ6BKIhsiXpEVhmBNO0ajLuhgutb/EJrqpTSPMHIs7s1XKIaeFYFyVi/2kxrpLduOsrbrst/xFyOrBvyUJM6YloiEKc3UeVKEXKvtmMR6rH45Dw2C0+iIir/ECLUFq4UkepLx9oahiiIQJr7jgc25fjKivEc7WmjYCaG0KeuvNIC0cgpvduR+Z60iOQFgzFlpeOfcMC7AUf+iAfYVs7A3FuP2XzXjVluVnhymGKGf2wrX6X5j1rcZ05BNZrbW1aC7mqTiCm9WppMfWiKilLahiWlFDfRW41+cmoa6mTHokltRdSSjDNC4fjXp+BZW8+9mv13kKOs8ewpIbcUqjJGI3z/b64fJjmjL5eddSRZvfBNidamdtoiKJsagj7kx+iICmI6mO7vYWk8uNUTu2JdBMhqzGaSym9OfR6MHsmdGfvxB53n9d6cOzNEK4ZopCM0e3WlCXkg6ycHs7hN4LZmvwYXyd2whzrz+IBAucObvcWunTyML+O7oLNGKWchnphecw+ty+/je9O9tBAMmP9McUF3HUyYwNYm9SZhrRIZfNKLaNcKxrH3GhqZ0bwx1uhbBvbjbyXHiYnIQhTnD9ZcX6YBwhkPiNw/tAOb6HqU0dZFu9H0eQQZePyicgLy5Gv5bETU0JZ+fyDmAYJZA/2TbIGCaxLDFKE5Bpy5JYqfSeMneMeZ/3Lj7B8REdM8QGY4/zJHvIApv4Cy154lI2GZI5+l4u1/rK3UEPFnyx/JYwVzwWye0J3qqaHKws3GvpQOS1cGVs5IogvErvy/YwkNmWMZaMx+a6zYc4YdhlfxGJ8msppT7Jv4hP88GoXvhrViSVDA5WnkR3bAXOMwNJ4f/LfTqBw1SecO7ANy0XvF/0NoeYmkR1ZaWTGCOQMC+TbpM7K6ciRWyInIZBF/QV2mFK5WlWOWHsBy+Uqn6Tm4C/8PD6Mb0YG8fnwIEyxLS0lP8ElgwXWjIlkZ3Y65bs2ceVcKR63p61FK9p8KdSWFbNu0kDMAwXMsX6Yrke5jhHInzKM+jMlrW/xCbVlJ8lN7EbmAIHsuA4sGSLwZWJXNs+bSMnWfOrKTuCwiurb2sXrW+7iqd/5cdZochI6sjTej6VxHZTrzfMnUVdWrJ7uE2rk/++ornwWF8D690ZyJC+Hy6XHsTbUqqfeEi8hmaaGOqqLCikqWENxwRpqig9ga2xQT/MZVyrKKFz9KVVH9yDV1eB2udRTbpt2hf5G6VXPv/err3C7nDgddvXwHXFTofsRXUjr6EJaRxfSOrqQ1tGFtI4upHV0Ia2jC2kdXUjr/AWSwd6L5M8ocwAAAABJRU5ErkJggg==;" vertex="1" parent="APwTUMDmVfPKR00U0lOk-10">
          <mxGeometry x="503" y="45" width="52" height="55" as="geometry" />
        </mxCell>
        <mxCell id="APwTUMDmVfPKR00U0lOk-17" value="https://github.com/Ben-levi/AWS_APP/tree/main" style="shape=image;verticalLabelPosition=bottom;labelBackgroundColor=default;verticalAlign=top;aspect=fixed;imageAspect=0;image=data:image/png,iVBORw0KGgoAAAANSUhEUgAAAKAAAAB/CAYAAABop8nXAAAAAXNSR0IArs4c6QAAAARnQU1BAACxjwv8YQUAAAAJcEhZcwAADsMAAA7DAcdvqGQAACsTSURBVHhe7Z15nBTF3f/fVd0ze3EtAgK7IGpQlIgnKqCoAaIcmufxeDSeoCIeCRrxwCeiPIgCikc0PiGoMRoVjUY8ooJ5NDGJB4r8BORQlEsQXNhF2F12Z6a76vdHdfccOwMzC7vsrvv21bLTR3V19ae/dX2rSshwnqaVVvYRMnVHK600Jq0CbGWf0irAVvYprQJsZZ/SKsBW9imtAmxln9IqwFb2KaK1HTA9mRJFeN+s1vEzhBAIIYL9QgiUUghzMDgvfZgakeHID4FWAeaITJNaWmu01liWhdYapRSWZSGEwHEcpPREKzKJ8IdLqwAzoUEAGo0UIhCZFJLCwkK6du3K4Ycfzo9+dDDdu5eQlxfGtizwznUcl6rKStZ/8w0rV65k1apVVFRUUFNTA1KA1ggpEQjUD1iWrQJMgxAC13GQCEKhEO3bt6dz584MGjSIa66+ir59+6K1xrZt8Cygb+V8fMECKKUAiMVizHt7Pk8++SSfL11KeUUF0UgER4FyXZAyyMp/KLQKMAPhUIghp53G5ZdfwaGHHELvQ3obkWkVCM4v61mWlXo5rusmiVIpZcQlBMp1qY3UsmzZcj5b/Bm/fXQWK1euQHnlxx8SPzgBJj2sMNms0BqUi2XZdOrUiaFDh3DvjHvp0qVL4tkNgl9mfGvePKZPm8by5cupqt6JFqYMqRIqO2AsaUviByfAJLRGWhbadenYoT1Tpkxh2LBh9OzZE6UU4XA49Yq9jtY6sJaRSITFixczbdo03nxrPgIB0pQp8SoxLY0fngB1QsuI0nTt1pVLLr6Y23/93+Tl5QVZqlIqKOM1JH5ZUSdkv1prXv/rG0y7ZxpLli7FdV0AVKsAWwBKYUkLtGbosGHMmDGdPn0ONTXYJoTrulRs28bs389m8uQ7kVLiipbXb/CDE6BEUFpSwoQJNzLuqqvAa0S2ZNMyL0opotEooVCI+fPnM2nSJBYvW556WrOnRQtQe4V2v6IhpeToo47mzTfepH37dkm11KZW+/TLfT61tbWcPvwMPvjww6A2rbUCYTXr1u2WZ9MzEAqFuHz0GF595RXat28XdJ8ldqM1JVLjV1BQwPx587ju2mshKDfWFWpzwxKWPTl1Z0tBoBHeV3bThAnMvG8mRUVFSCnTNh43daSQDBs6jOKOHXn3739PONL0PqBsadECtKQgZFnc/utfc8vNt2DbdmBRmpv48ARoSYtjjzmGcCjEv//9L1w3sVrf/GjRApRorrv2WibdPom8cF6Q1TbFLDcXpJQMGDCAnTU1fPzxxymN1c2LFiNAnZARCa2RCH5+wfncffc9FBYWxst6Ii7AxDY4/zf7UKBKmW4+rTXKj5fWpkE6AT9+/fsfx9dffc3KFSvMORqTCvsm+vWixdSCAwFqjS0k/fv3Z968NwmHw2it0/ZqRKPRoLHZcZykLHpf4Louwutf1sI0GWmtsS2vQTxNtKLRKIMGDWLZshU4rosKBNg8XmvzKwjtDiGwbJuZM2cSDoexLItQKJR6FngWp7Kykquvvppf/vJ61q5bj/ZeXWO9vqT7CaisquKpp5/m7HPO4Y233jRWMI3wfEKhELNmzSK/ID/1ULOgxVhAhUYoTX5+PvdMncovfvELZEJ2mw6lFOPHj2f27MdASJRSnHfeeYwdeyVHH30MbdsUBt1yieVHpVRQk9ZeF1pitp5KurKnH6bWmkg0yufLPufv777L9BkzqKqqwvWy33Vr11HSvXtGDbqui9aah37zMLffPglH08if0J7RYgRoch7Biccf77X1td+tAB3HYciQIXz40QJcJFIILNvCtmx6lHTn0ksu5he/uI78/PzA2xlPSNprxkkUp3/M35dOrL7rli+cf7z3HnfceQefL1tGdXU1llckUGhUNMY///VvBg0YYMIO7hLHDycWcxg95nJenvsKSitEE+vZyUSLEaBp8xO8+cYbnHbqqSBA7qI8pwHHiTFw4CA+W7IE7ZdGtEYDUgq049CmbVuuu/YaTj55MP369WPLljJWrFhBWVkZ27Z9z+rVX7NmzVrvdwVKKQoLCyku7kjPnj055JBD6N69Ox06tKfPoX047PDD+P7773nnnXd5/PHH+HTRIrT38ShP1JYlicUc0Jp5b73F0CFDIIMAtedNgxAsWPAxw0eMoKY2ktYSpw1gH9NyBOg6XHzxxTz++ONpHURT0UA0FuW4/v1ZsfKLXb4drTWWlOSFwwgpicZixGKxjOL28UXgWz5LSgoKC3Edh+qdOwNLmj4cCU6Ml+e+zFlnjko9mJZoNMp1113HH596GpHiuKBpmu5cLaYS0rZtW8aNG5fhZaZHqSxHY2iN47rURqPsrKkhGo2mtzAp+NmwlBLXdYnFYlRWVppxIZ4wdxlfIYjFYql7MyKlZPr06XTr2jX1UJOlWQvQL18J4KCDDuKYY47JShg+ruOiXBftjdnIhJAyKMfhvehce1KklAh/dFyCOHfF7uKVihCC4uJizjn3XGzbRuV4/b4gt1RsYviVAKU1EydODNrxssWvGDTFriztjZrzrWW2CCG44IILiEajOX8k+4KmH8M0BDbOG5nWs7QH55xzDngvIFt8AeZwSaPhV6Acx9Rys7XsSin6H3cshx92mKm5J6ZXE6RZCtBHCoETiTLmssuCslYuAow5sZxebmOitEYLQcyJEXOdrOJoWVZQAXv8icdwXccMhhcClUO6NCbNWoBKaQoLCxk8eHDqoayorKxkZ00Nsgm6ugshUMqlsrISKSWO66SekhEhBMcddxwHH3xw6qEmR9NL+RwQQlBYWMhBBx+UeigjSilc18V1HZ555hnKvvsu9ZQmgfZG7D32+OM4MScny+5zzDHHpO5qcjRrAQIc0LMnJd27p+7eJUIIPvnkEyZPnozWGrcp1hY9wa368ksuG30Zrpt9HI31VBx//PFZZd37kmYtQK0VZ/3sZzl1Owkh2LFjB1OnTg1q0dk0XO8zhOD111/n3XfeST2SEe31qAwcNDDnppzGplkKUCDNLFUafjpsCOTwlSul+WbDRhZ9+hkKCcJCZX95oyH8WRCEIOYoXnx5rmly8rbdIYDD+vShML/ApE8OadSYNEsB+hQWFnLUUUel7t4lUgpeeeVVKrZtSz3UNPG68d7+29+8n7vpPUkgP7+AE44/HrxZvZoiTTNWu8FvOundu3fO2adSmpdffrnJl40ChMBVis2bNvGhPyQzC0yzlGDAwIFmaFZ2lzU6zVKAPr169UJk0aWVyPbt21m8eHGz6CXw0V5vzdy5c7N6Vv8cIURQE26qH1zzeQtpKC0tQXuzS2XLunXrsBL6dZsLQgiWLVtmHChyiHuvXgdkJdp9RbMUoJ+gXbt2A69POFu++64spxfYlFi7dm3OFr9Tp/2MG1kTzYOzf3NNCL+ZoV27tsHvbKmpqQnayZobjpN9b4iPlBZ5+XmtZcC9iS+gNm1yF6DwRi/mYjWbCvWZLk5KQTicl1NDdmPS/N5CguBCIeN+lYuYiouL8edWaW7st99+kOMH59Vfcsq2G5Ps31wTwk/MXF6ET+fOncHrE24u+Bb/wAMPDH5ni1IKx6lfX3Jj0CwFiCe+aDQa/J0tPXqUYoctLMt/dOFtTYvgibQGVyGB4447ztuV/fMqpXJy629smqUAtdcbsGPHDlTKsMjd0aZNG4488sgm7aSZiF/EEBoGDRoUPHu2VFdVU7OzJlHSTYpmKUA8EW7dWo7wRpblwqhRo4xlaSYopejUuTNHH310TuIDWLN2jedLmNt1jUWzFKBvFb77bnPO4tNa89Of/jTjdB1NDb/J6ch+/bAsK2ev7+XLV5ghmrpplnmbpQB9vv56dc4vRGtNr1696HPYYamHmiRSmBF4Q4cOTT2UFR8vWGA+0hzSqDFplgLUmEHWK1euROXYFSekoLhDMaefcTqgkZZoktZBCjPbg9IuynU4++z/TD0lI9pLk0gkwnv//GcTzXwNzVKAeCLctHkzX6/+OqevW2uwbIubb5pAYWEBTixiRNjEUMr1phvR3H33VHr1OiD1lF2ilGLNmrWUb93qpU/Te0aaswDxyoKvvfZaTkkrAJSmXdt2PPTggxTkFzTJCqIQZkXNY489lvHjx+dc1pVSsnDhQmSO7mqNTbMWoJSS559/PqcxHf48y5aU/PyCCzj5pJPM8EVtlmXdl1hSohxvCKbW5BcUMPO++DyHuaC15oP3308oH+cm4MaiWQsQ4JtvvmHDhg2pu3ePhrAdYs6cOYy+9FJsKff5K3JcF2lZhGybrvvvz4svvcSAgWZqtlzwreXChQtTDzU5mqkA41LZsWMHK1esQKfp303c5/+tif8LUFhQyG8feZQzzzqLcDjktQ/Gw/GMUbzZ0D+cuNUDPzxzO7OchPACK+nenT88+STDhg5F12fAihBs3ryZzz//PL6vHsE0Bs1SgP6L0gKiMZcXX54b1PxSa8T+Qn+BAD3xOY6DZVnkhcOEQzZ/nvMczz/7DG0K8gkJQZ5tIZCeUIQ33ZnE/D95yw1zlXYVaOOlZ6GxBeC6XDvuKt77+7v8dMhQJKLea9jdcMONwRRt0qvMNEWa/fyAUgikZfHl8mWUlpaiU2YhBViwYAGbNm1CSkmPHj048qijzIv33Zv8SR49of7ud7/j9ddf5+NPPqWqsjIoyGdqb8x6FUsdF6xyXZRShMJhDj6oF/3792fSpEkcdJAZZJ+Lh08qX676ir59f2wqXL7jhvfBNjWavQB9Lr3w58yePRvLMgs94zVFaK0ZM2YMzz//PJZl0bZdO04ccCKPzX6M/TrtZ0QhRR2P4draWlavWcuXX65i0qRJrFy5Erz5V3zr6bM7AfrFAImp2bquS2FhIbfeeiujRo2k6/5d6Joyp18mse8K3/Pl/gce5M47J5v8vVWAjcP++3Xk3XffpXfv3oH18LPjqqoqxo8fz3PPPYcdCqHQnHDCCfzxD09S2qMHAupkdVqbbDqxp2XDhg3Mef4Fpk69m0gkEpy7OwEqb/mFo486kltuuolRo0aRl5cH3n3q42iaDsdxUEpx9DHHsmrVV0nHmqoA62/nmxhbt27lpZdequO2rrWmqKiIWbNm8eijj+K4DjHH4f333+f8n19AxbZtZJonVQgRhCeEoHv37tiWTa3n1p8twru+qqqa008/nby8vKBfN7XMuidorZkxYwZff/116qEmSwtaKUnz/gcfMnLkKLp06YKrzLzOMmF20x//+Md8u/Fbli1dhpQW320uo7raiEJ72bVIWKFSSolt20HlxXEdrrhyLN/v2BFMn5aNVRFSghBUbKtACDj11NMQnmXNtX0vFeUqM/2GEKxZs5ZLLrkMBbhob2o2z/JlEc99QYuxgDIUIhqLcdvEidTWRuuU6XwhPvTQQ0aQXnlp1u9/z4zp05POTcW/9s0332LNmrVGNDlYQB+tNTPuu4+q6qrUQ/VGYCoajqN4/IknqKmN1MkFmjItyAICWrNp82b269iR40/oj0jwFfStjZSSfv2O4NXXXkMphbQkny5aRG2khgEDB2JZdlBe0tr8q5SmeudObrn1FtasWx+s45ZLNoxXIdVac8bpp3PAAQfsFaOkvWal+fPnc/Mtt0KatUuaMi3GAmplBBGNRpkwYQIffrggeBGJWatlSQYPHszAAQPQXtthZWUl06ZNY9CgQXy56ks2b95MJBIlEo2wbdv3rP9mPVPumsKHH30U3G9PXvD69etTd9UbpRXfbtrElWPHEolFcZQLe9CE09i0mFqw9rMjrbGlxY9//GP+9vY82rVrl1TTNI3V8I/3/sGIESPNEl9eGckvBx5wwAEc1qcPVijEmtWrWbVqVWBJ92x0o0ZrxW8efJDrrr1ur1hAVymuuOIKnnn2OZCmyRnijfVNnebzqeyG4GUKgaMVny1ZwkWXXML2HdvNfm02KSS2LRk65CdccvGF2FIgESglQNgIGWL9N98y72/v8sab81m+chUxFxwlcHbX3rIbTLOcTe3OeBNOTnjPoL0BWdFYjHumz2DOC39G+I3lTbjXIx0tRoB1EPD22/OZMGFCYL1SufPOO+nWtSuWZdaJE1oHm9TmRaZue4ZASjNz/Z4iLcncV+Zy38z7TIP7XmzOaUxargC97Pa5OXO4/Y5JVFVXobSKOyNoTUlJCQsWLKD/cf2RnhUNWiy09iyOJxf/9x4gvHbF+JDQ3PBcKVBa8c9//YtLLrmEmpqaZis+WroApW3jas39Dz7IzbfcEggvGo2ivKl5u3Tpwvz58/j44494/PHZnDRogCnDaxflRCnMz+PoI4/g7P/8Ge3btUm9Rc7sSeXFcRxcpVjw8cecc+65aEwNHa+dsTnSYioh6dDeNLcCsITgJ6edxu9+N4sentOCXzHxhYknEL93wlEutmWm/1i7bi2nnnoq324uS7hD7ghhcf+M6fxy/C9yroREnRgvvvgil112GVYohOM6iMB2N09atAVMzFRdDX975++cddbPqKmpRXgLVCvP385vphFeD4iUkrAdMl7SWhOy7L3wmr31g7PIgpWrcKJmIZ1IJIKrFY/+9neMG3cNCAvX1Z74mjfN/wl2gfFxSSjZCcGKlSs55NA+vPSXl3GVWaJBeW2IfvaYKMZEUe5J9plIVq5WWmPZNo7jsHPnTsaMGcOEmyYQ89zGDEGJtdmSRUq0LFzXZdu2bVx80UVcc821ZunV3dQuEoW5J/gN4lJm0f8rzLrEH3zwEd26lzLnuRe8LjcnWHWzJdByniRLpG0TUy7akjz1p6cZfNppzPr9bGpra4M1fX23Jp9MzTi5Irxp0jJ5wJgVnEwcVq9ZzYSbbmLkqFE4WqGlcbwV9ZiKpCnzgxOg15aL9l748mXLuP6GG+jVqxeLFi3K2JHvum7GY7mglMo4+s5xHGpra3nxxRc54oijePzxJ6mNxjBO9S3zVbXMp8oSISWOUggpKK/YximnnsbwESOZef8DxBwH11Wm+U9DJBIlFkssf9UD025CeXm5caPSphnFcRXfb9/O5MlTGHTSyYy5/Aoc5eIoxyviKW9rebToZpj6YFkWsUiEgoICJt95J2eOOpPCokLeeustxo+/Hnc35cVdIRCELItjjz2W//3fRyksLGDLlnKeeOIJ5syZQyQSCcqZe9jr12xoFWAKynGwQiHP8GiKi4tp364d69avR0pJTNXfCkohQBl3gcKiIoqKithSVgZeuTCxktMqwFYah4SRcon8UASY7tlbaaXR2CcWsO4NTUe/yYJE2jN8tAaErtMAm85gZAol3bmpZLw23YFsAswQptDpL89mrEmDkS6iZP+cudAkBCgwHs0agW3buK4bDCQCXae7jDTj2NKlTeo5PunOzRaZJlCVdiXKNLXWjGLL8voGoe69ZZr5EhV7mHAZ2CcCTEVrjb9or/TayrRXaJeWFW+4FaZjTe3DdS/SCTAdaV9YhvJeOhqrDLhHz7MX2CcClIAQZmSaUgrluky87TbGjBlNfn4B4bDvPq9xnBjRaJQ1a9by9tt/49VXX+Wrr74yrvfePM9KmZ6CIHxv1Jsk3r+rlDKWNWSGWdaX1BfmOE7cZ9Cz0qFwGFebj0grFe86SxCgP5TS9Qata6WwbdtzVrAaTYBCxaclwWuGksK43rquGwwbbVECzPNGng0ePJgrr7ySkSNHEA6HEZ6zaLqxsv6LEkIQcxwikSgfffQR559/AVVVVcELE75ns5SUdOtOaWkpn3/+OdXV1SYcnSEfzBJfgFprDj30UObMeY4E7ROLxfjiiy+5ZeJENn77rel/80kQoG3bXHTRRVx99TjCIRspJa7rEolE+GzxYsZffwORWCw7x4V6oLVGuy7/+ud7tG3TJmk+ne/KtjJx4kSWLlkSxL+hBIgM5+mG3ETCJsN5WobCOpxXoMePv0FHozEdjcZ0bW1ER6NR7bqudhxHK6W8zQ22SKRWx2Ix7bqOdl1Xu66rY7GY7tv3CB3OKzD3CoW1DOfpvPwC/fgfn9IxxwnCvvbaX+iiorbaSoxbKBxck80mwnnaCplNWiF95NHH6JjjBvH14+84jr509BhthfM0lh0Pw7vWCuXpcF6BvvmWiToaM8+ilNKOY54tEo3oYaefkXP8ct0QUldUVATx9v+t3lmj77rrbi2tUPx5Q3Wv3ytbqiD3OsJsQhrrZVsW9907g+nT70FKM0wyHA4FX2Ddsp0GNKGQjWUJbwSbySLWbdjAqq++IqY0IJFaUJRfwPPPz+HSiy5ECkE4HMK2bR54YCZjxlyGTixgJ82EYKVsEltItOMmffhKSFNDldJMJJ5wUPhuW1JSWFiI0jppilwt4tcbi669MEwgvrWzLZuiNm2C+DUkfnHEdzeTUpKfFyacbxrjE+PcEDS8ADEa0o6LJS1GjhjJ6NGXIVMGUMeFEH9SI726m3/+e/94j5iXNYMZqNP38MM5adBJdTr8LctiypQptGtrVtjEn55Na2zLxhakbIJwyIh3V6R7LwIIWSZb3VV5U6QI2OwzaZDJY6Yx8L3FM8d879HwAvSeQgpBQV4eD9w/k6KiImzbvCAf451stkQXedNxJTEeIcI4kToOruvywQcfJHkXu65Lccdi2rQpqvPi/TJkly5d4mF7/153zdXMnz+vzvbsc8+iXDexjpE1dshUKNIJNBvCoXBddTYilrTSf117mQYXoPAK7gLBjb/6FSUlJYGpTxSgL4aNGzfy/vvvM3v2bK6//gYuuvASrhw7jrvvnsbrr/2VD97/kAUff8zKL1aybPnypMFqUkoqK6uora2tI0ApJa5SbN++I9jnC73P4Ydz8sknMThlO/744/fYEtVDu4A3Z+E+EqA/cVJjKLDBBei/gU777ceZZ565y1rdb3/7W84880yGDx/Oddddx6xZs/jLK3N56umnmHL3VM4+7zyGDPspw4efwahRo/jss8+Srtdas2zZMr766us6L08IwdNPPUV5uVlfLpG8vHAjJHUr6cishr2EP0/xQQcfzIEH9qpjE1zXpba2lmkzZnDLxP/m8+UrqInGEJaNwps/L8FbRKPZGYmx4dvNRGMxL5NWaBRawPbKHVx40cV88OFHxFwHVyuqqqv549NPcdt/34ZKmLYMr2hQU70zKU54sXRRaFw0LqAQKDNgXSW056Vc56O9ldkTt1xQKdea601RJHlLR7zYklh8qRteeiPnKkXMdVDaVJS0ipmeKlP7CjYz46u5JpgKLjWw3ZDpCfYewowqGzFiOG3btqmTNWqt2b59OzNnzsRxHVMxEAItRNrEyYaNGzcyfPgI+vXrx3HHHUffvodz/fXXo7zZ6MG8AVNGE2zbti05AA+Bib8E09isNVLI5KJZpjh6zY2JWy5opUwtODEMrepsad+41nXOMzM9pIlLuusx5WxLCpTjGPkqhSVAxaLgOqbtM7FJNW04u6fBBeh3q40YMQKdpllBSsnYsWOprq5GK5XTojPJxCsutbW1RCMRvv76a5YsXsy3mzYRiUSwLAvT4yxAKUKW6RU56EAzMXgSnuD8WqklJZZXq82qUpIgQD8sY3riU7vtKpyQHTLx9MrP2pt+w9/8MFM/aMDYOv94net8gaZeFcfEzYTdvn17Bg0cxLnnnsP5553HpZdewvn/9V+cNXIk+3fp7IUVF3euNEJPiKRTcQc2bPjGTEmRIsJ169Zx8MEHI22b+tcZMSPbNBx6yCE8+6dn2G+/jnFLJYyzwx+e/AP3TJuOZYVwolEsy+K+++7jmquvqtPcor3JxCu2bUN4HwrAvPn/x+WXj8F1XY488gg+WfiJyYpSuOmmW3j4kUdM15p3rRZmhhlQWAhuvPF6pt41NW3Pz2WjL+e5555DCsHM++9n+PAzsBK7XIB169dz4UUXU7Z1a9L+gvw8Pvv00+DjITBQguXLl3PRRRezs6YGNxajvHwLHTp0SHonpjfnCwC6du1KXl4eRUVFwTn++Jjq6p289tprjL1qHJZloTDtvblU3BrcAgIceeRRSC/xUi3gkiVLdmsNciEcCtGtW1e6d+tGSUkJpaWllJaUUlJaQlFhESAoyM/nj398ku3fV3DN1ePqzKbqI6WkY3ExHTt2pLi4mOLiYtq1axtYh11x4oknMPbKK7nmmmu4etw4rh43jnHjruLqcVdx9bhxjB07luNPOGGXlTI84RQXd+DAAw+kV69ewdazZ0/279IFvIbsxHRVrsuBBx7IAQccEJx/oHdNaUkptmVleGKD1po+ffrQp08fOnbsSGFhYXAPf8vLy6O4QwcuvfRSXnv1FQoLC0GbrDsXdv30ewPt0PeI9GvzamD1mrVIO+Q7w5j9jotQGlwXoepuuA5SK4Ry0U6MkJCg44Viy5JIy9glf5MI08muXDp36sjQIUPIC+dhW1ZaC+QntD+rarzZyOxLd00i5557Do8++giPPPwQD3vbI795iId/8yCP/OYhfvvIb/iPs36WelmA8CZ2VlqTn5+HTIiT8JqxfBX57ac+JvdNnu8awJICIb1c2NwluCYRf206yxsGKlMG5Qe9VlIgpWD48OE8NnsWltezkwsNLkAhBZ07dUp6gETKt5bjKBAJDcpaa371q1/xt7ffzri99eabvPbqq7z45z9zyKG9k5LSF106hFc4s+1dC4iUFx7fl3RKTpgPIR631LBT8WuWQqa30en3xuOYLuyka0TwvzokP3PdcxLTRgjjWNK3b98MoWWmwQWotaZD+w4Zs6zvt39vyg8JJlBKSe/evTn55JMZPHhwne2UU07htNNO4yc/+Qlnnnkmw4Zlv5q4xmT3rje3sv9fKn42mz67bVmDw1NRWpt5sIHqndVs/u47ysrKzCwSib1UCWnQqVMn+vc383LnQoMLUIBZBDADQXaRsM83+6nZX+rmZxW2nTn8VKQlKS/fyuTJd3LvzPt49tlnWb16depp4NWm77nnHqZOnRpsL7zwYuppDU44HE7d1aC4ymVr+VbGXD6GIUOHcvzx/TnxxBM555xzKCsrQ3m+lakfoek5yu3DbHABAsR2UTANh8OmPS7XwoOH+eKyf2gnFmNHdTWPPfEEkyZN4vIrr+Cvb/w19TTwnE0nT57MlClTgm3OnDl7ZYaEXBAijddCA+Iqxf0PPMDzL7zAJwsXsqmsjA0bN/LOO+9w+umnB5Yw1dr16tUrU46ekQYXoNKayqrM62Ls16kjAtd4Duv4oB/tZQMqYUZTreKu+4mEPM/orJAmu9faFLK0CyE7vYURfsVDSLQQZuyHFCATJuutGx3wmiq0N/OBUqCUmeDc1ebvmOOiEhZJTMXvqRHaeNakKyY0FCHLZuuWLWhXI6RtcikkroLlK1by73//G5Fmjpru3bubtsYcaHABCiEo+64MlWagC0CXLp3ReH5xCUXi6upqKioqKC8vp7y8nIqKCnTKC/MLwVY2s015mHuY/++uGKe16ZIyKyJJtLC8trz4IoCZPvi77rqb7iWldC8ppaQ0vnUv7Um3HqX0KO3BjRNuzNgMoz3xCc97ujExfpoWyhupqLFQQuJqAMGSJUuDtE+kQ4cOOX8m6Z9+b6I1q1Z9WSeyPj179jTWL+FVCuDee+/lpEGDGDRwIAMHDeSMM85Apzh4NmVqI7VUVFQkfURbE/7e9v331OysqWNFmgPfbtoEKZUQgLy8vKZnAbXWLFu+PGNW1ftHZnXLpIcRgrKyMlavXcvqdetYvW4d679Zb5pq0uu4gfBvVr+bulrholHCjHJLrG+bLsq65SgfU8byiiKej2TiMX/L1BSzJ2jP8mUKuXKHcWlLjHs6i5gNDS5AaVmsWb2aTZvNV5NKaY9SBpx4Yp3I+7+DZPeP1+Mh64/Xp5rp69lDUp85FSPCumUtH8uyGmiySnO/TBVDx4kPEPMJ4pj+kow0ROyTcB0XELz77t8hzdcsEDz88CMUFRUFjgvBJggSw7hlxcPdFZleWDp2eaYQ3qrqvu3KPntJeo7d3ScNsZgDwvSEmMnI6z583EqJpDfvP34u6ZCEJnC8MDH3nMOESYfijsVmyYuU8Kurq9PGc1c0uAClFcayw7z0l5eJRKNJL0Jg3I6O6teP8877L4Rlg5AgLW+2AIHwEsIOhXBdN2NlJpXUxMmEb2XSYdu26XbyPwSR3b1JkETilgtCG79FpMBxkwdGBecIgbTshDtIwNTcff/J+qDQRKJRr0nCe27hej6Xmq7d9gcziDa4Rgjj1papUpWJ3M6uB9r7glesWMGWLVvq2AJ/Ko4Z06cx4Vc3UFSQj3ZiCKVMt5nX7LJ/ly6BDnZFqoXdHSJhUepUQpZN506d4yLKPti9ys6dO9M+UzgcJmxbSK2StjaFhYEI64NEBC5geM/tP7tyXQYMGOBZ37jAtdZs3Lgx+J0tDS5AjB1j3dq1fPzxJ7hpVvuzLIt2bdty991TWbDgI0aOGEG3bl3p2mV/Srp144i+fXnm6T8hhSTRj0P7WXqCKnXarrPMCCGIRmPEYrE6rftaa2ZMn25eqG9Vg47/7O9RH2LeEg3sQoBdu3blRz/6EZZlGX8/b1D/8OHDzWTm9bSAWmmGDR1KcYcO2NJz6hCCkJSMGjmSgScO8D7K5PCXL18eeMBnS25n1wdhGvg0cMedd1CV0ijtF2alFAg0Pzr4YF588QWWfb6Ez/7fIhYtWsSCjxZweN++5oHTJGqqBUstIO8KIQQbN24IPD+SjiE4++yzee3V1/ifyZO59aabGT16NAX5+TlnNbmiiY+2MmWrZIQwEznN/v0spk+7hzvuuJ0777id/330Ee69d4YRZRrRZoXW/MfPfsZbb77FA/c/wJTJ/8OkX/+a2b//fWAIUsWnteaLL75IHnedBQ2bipBkKdasXs2kO+7AcZzAUqVaHClNwhYVFRk/vA7FhGyzSEyqQHxiMSNAPySdpX3yLefSpZ9TW1ubNvy8UJgBAwZwy823MHnyZMaOvdL4vmV5j7okXLWLABLdvdavX2+GKCSgvbJr9+7duf768UyaNIlbb72Vyy67jI4dO+7RB+K4ZoWofv36cdXYsdx8883cdtttXHjhhRQVFQXn+emntWbHjkoWL16c1kDsivrHMkv8TiulNTGleObZ57hv5sygrOa6bvB34GeW4IMmRHzUflAY8/D94GzbQgsvK5bmpIwff+J+YYYzLVuxnO3btyf3snhTxQkr7hQRCoWwhFceUppYNIabpmtw1yRFIPmBErBsaaoUWvPSiy8H6wCTkj6JQguFQoGjRt1cwEsX/DZJkgt3CYTCIYRlnte2bWzLImTZWN5gez/appvRLPSzZOlSlq1YmRTPbGhwAfqYxBBUVVVx15S7+OUvf8m6desDsQhvug2TZcdHcKWaepIsnGDHjh0sXPhpcMyU4/xsIB6O/zsJ715btm5l0h2TqKmpAT/8xFFe3nneReYcrYlGY0n3SNxyIfVa7XkQ+WlWVlbGC3/+c51zkuKWkGZ+rmIW4UmNj/ccKUmRGKZfedGeS5a/CZJzISkFjqPYsmULN944gUgk93WQG02A+AkjBI5SPPGHP3LaT4Yw8bbbqKreGSScn3imnSnZSvphKKWJxRx+8/DDnHLKabz3z38H94jURqipqQ0qJ74lVAkD2FPRWvP0n/7ErbdNpDYaMffwl3b1lkf1/3ZcB1e5aDTfbPiG8m3l+GOE4uEZix8f4J0eIWRCm52xKFqD6yoiEbOipxCCWCzGTTfdxNy5c1Hac4XynsaPq/+39ppv1qxby+gxo4OmK9ebXN1xYvEIeDmTDj5cTVlZGef//AI++XRhIEZXGWcRP8eJvyNNNBbl0tGjWfL5UlydfVutTyMMSqpLotWXUhIOhRh8ysmce+45dOrUiZ49e1JSUkJ+fj6WkOzcuZOKigrWrVvHli1bmP/2/zFv3nzKK8wgc61Nd5fAfKqDBgzg8MMPp6CgEMu2QGtcV7Fw4Sd88NGHCdbMIADfIbtHjx5ce+219O7dm67dutGmqA0Rr1+3vLycl/4yl7lz5yKlxHEcBg4YwLHHHEdefjhwinBcl/f++R6ffPJJ0r38xxYAruLoo4/mjNN/isa09UlhsvtvN33Lc88+a156orKlZsTw4Zx//vl07tyFkpLudOhQTMyJsW3bNr5Zv55vN37LU08/FSy6c/oZZzBs6FAqyisAydKlS3n9zTdMmqG59aYJAPTq2RMhBH948kkWLVoEwCGHHsoVl1/OoYceykG9DqRr164IYXKx1atX88nCT7n//gco31Zh1rAT5iFz0eA+EWBqFE39VyGlKccUFhQQtm1CYTMWwnEcotEoNTU1OK5L1PGyBq/c6LouCK/0ocGW0szpIqz4rE7ely7SlHlAg2dF/Npjfn4+llf+QQgikQixaBSlvazO65nRSmNboWB5LyEFUki0dk22mDBBZaIAbSGJxWKEbJuoq5GWaXCXXtxtKXAdJ9n5wpucUFoWtmVRWFREyFvQUClFdXU1rmehHG9uQd8qCgS2ZbJ1x7eYwow1VglzL4JxQ9Ner5T0BiAV5OUHtX/HcaisrMRxXDOHoW0b6+dZ8lyy1X0kwEzEX5Fv5tN+TZ7VE8IrpKWe5O3zcvws8QNKslPB76RKTVJHvUZrU1kK9vj33V0E0sQ9fm1CdIJz0sQFUy7z00Nrz7MoKVwvMZJ2mQ9JJMUx5ZyU+InE9+L3USe+i3rQxATYyg+NXKxlK63sdVoF2Mo+pVWArexT/j8qg5wF8NyqdgAAAABJRU5ErkJggg==;" vertex="1" parent="APwTUMDmVfPKR00U0lOk-10">
          <mxGeometry x="127.13" y="198" width="69.74" height="55.35" as="geometry" />
        </mxCell>
        <mxCell id="APwTUMDmVfPKR00U0lOk-23" value="" style="aspect=fixed;sketch=0;html=1;dashed=0;whitespace=wrap;verticalLabelPosition=bottom;verticalAlign=top;fillColor=#2875E2;strokeColor=#ffffff;points=[[0.005,0.63,0],[0.1,0.2,0],[0.9,0.2,0],[0.5,0,0],[0.995,0.63,0],[0.72,0.99,0],[0.5,1,0],[0.28,0.99,0]];shape=mxgraph.kubernetes.icon2;kubernetesLabel=1;prIcon=node" vertex="1" parent="APwTUMDmVfPKR00U0lOk-10">
          <mxGeometry x="431" y="433" width="50" height="48" as="geometry" />
        </mxCell>
        <mxCell id="APwTUMDmVfPKR00U0lOk-24" value="" style="aspect=fixed;sketch=0;html=1;dashed=0;whitespace=wrap;verticalLabelPosition=bottom;verticalAlign=top;fillColor=#2875E2;strokeColor=#ffffff;points=[[0.005,0.63,0],[0.1,0.2,0],[0.9,0.2,0],[0.5,0,0],[0.995,0.63,0],[0.72,0.99,0],[0.5,1,0],[0.28,0.99,0]];shape=mxgraph.kubernetes.icon2;kubernetesLabel=1;prIcon=node" vertex="1" parent="APwTUMDmVfPKR00U0lOk-10">
          <mxGeometry x="370" y="375" width="50" height="48" as="geometry" />
        </mxCell>
        <mxCell id="APwTUMDmVfPKR00U0lOk-29" style="edgeStyle=orthogonalEdgeStyle;rounded=0;orthogonalLoop=1;jettySize=auto;html=1;entryX=0.5;entryY=0;entryDx=0;entryDy=0;entryPerimeter=0;" edge="1" parent="APwTUMDmVfPKR00U0lOk-10" source="APwTUMDmVfPKR00U0lOk-20" target="APwTUMDmVfPKR00U0lOk-24">
          <mxGeometry relative="1" as="geometry" />
        </mxCell>
        <mxCell id="APwTUMDmVfPKR00U0lOk-30" style="edgeStyle=orthogonalEdgeStyle;rounded=0;orthogonalLoop=1;jettySize=auto;html=1;entryX=0.995;entryY=0.63;entryDx=0;entryDy=0;entryPerimeter=0;" edge="1" parent="APwTUMDmVfPKR00U0lOk-10" source="APwTUMDmVfPKR00U0lOk-20" target="APwTUMDmVfPKR00U0lOk-23">
          <mxGeometry relative="1" as="geometry" />
        </mxCell>
        <mxCell id="APwTUMDmVfPKR00U0lOk-37" value="" style="rounded=1;whiteSpace=wrap;html=1;" vertex="1" parent="APwTUMDmVfPKR00U0lOk-10">
          <mxGeometry x="510" y="191" width="95" height="96" as="geometry" />
        </mxCell>
        <mxCell id="APwTUMDmVfPKR00U0lOk-31" value="Grafana" style="image;aspect=fixed;html=1;points=[];align=center;fontSize=12;image=img/lib/azure2/other/Grafana.svg;" vertex="1" parent="APwTUMDmVfPKR00U0lOk-10">
          <mxGeometry x="524" y="205" width="68" height="52.800000000000004" as="geometry" />
        </mxCell>
        <mxCell id="APwTUMDmVfPKR00U0lOk-38" value="" style="rounded=1;whiteSpace=wrap;html=1;" vertex="1" parent="APwTUMDmVfPKR00U0lOk-10">
          <mxGeometry x="633" y="318" width="204" height="179" as="geometry" />
        </mxCell>
        <mxCell id="APwTUMDmVfPKR00U0lOk-39" value="Jenkins Pipeline" style="swimlane;whiteSpace=wrap;html=1;" vertex="1" parent="APwTUMDmVfPKR00U0lOk-10">
          <mxGeometry x="700" y="63" width="131" height="236" as="geometry" />
        </mxCell>
        <mxCell id="APwTUMDmVfPKR00U0lOk-41" style="edgeStyle=orthogonalEdgeStyle;rounded=0;orthogonalLoop=1;jettySize=auto;html=1;" edge="1" parent="APwTUMDmVfPKR00U0lOk-39" source="APwTUMDmVfPKR00U0lOk-25" target="APwTUMDmVfPKR00U0lOk-26">
          <mxGeometry relative="1" as="geometry" />
        </mxCell>
        <mxCell id="APwTUMDmVfPKR00U0lOk-25" value="Test Pipeline" style="shape=image;html=1;verticalAlign=top;verticalLabelPosition=bottom;labelBackgroundColor=#ffffff;imageAspect=0;aspect=fixed;image=https://cdn0.iconfinder.com/data/icons/job-seeker/256/test_job_seeker_employee_unemployee_work-128.png" vertex="1" parent="APwTUMDmVfPKR00U0lOk-39">
          <mxGeometry x="32" y="30" width="67" height="67" as="geometry" />
        </mxCell>
        <mxCell id="APwTUMDmVfPKR00U0lOk-26" value="OK" style="shape=image;html=1;verticalAlign=top;verticalLabelPosition=bottom;labelBackgroundColor=#ffffff;imageAspect=0;aspect=fixed;image=https://cdn4.iconfinder.com/data/icons/evil-icons-user-interface/64/check-128.png" vertex="1" parent="APwTUMDmVfPKR00U0lOk-39">
          <mxGeometry x="21.5" y="124.4" width="88" height="88" as="geometry" />
        </mxCell>
        <mxCell id="APwTUMDmVfPKR00U0lOk-43" value="" style="shape=image;verticalLabelPosition=bottom;labelBackgroundColor=default;verticalAlign=top;aspect=fixed;imageAspect=0;image=data:image/png,iVBORw0KGgoAAAANSUhEUgAAAcYAAADaCAYAAAA8AeJ9AAAAAXNSR0IArs4c6QAAAARnQU1BAACxjwv8YQUAAAAJcEhZcwAADsMAAA7DAcdvqGQAACoASURBVHhe7d1fTBvp3S/wL2wStg1otzU6MhFZsqoEF8BNDW9rshJkW+GVGtAGotUbUilE5Y1VaUOlJBcnXlUEVeuciyRSzUqVt1RJpC4crQJZBaqzWG0DUhfaF/zeYKQ3SFVJg8A6wtvtwdmG/MHnYmY8vxmP/wC2w5/vR7ISz/jPzDPPM9+ZZ54xBV89icVAREREAIBC8wQiIqK9jMFIREQkMBiJiIgEBiMREZHAYCQiIhIYjERERAKDkYiISGAwEhERCQxGIiIigcFIREQkMBiJiIgEBiMREZHAYCQiIhIYjERERAKDkYiISGAwEhERCQxGIiIioeCrJ7GYeeJ2Fds5i0pERFlUUFBgnpQz2yoYGXxERLQZ2QzObRGMVoFoNY2IiEhjFYZW0zbqpQajDD9zEJqfExERSeYQlM/N8zbipQSjVSBaTTP/n4iIyCoAraaZ/5+pvAejVejFYrGEgLR6HRER7W1WoSf/NU8z/z8TeQ1Gc9iZg9E8zep9RES0d1kFnhaI5mC0em0mXkowmoPQKhStApKIiMgq/MzhaBWUmcpbMJpDz+qx75UCfGP/K9hXWIB9+wpRuIEVISKivWM9FsPz5+t4vh7Dv569wPMXsYRA3Gw45jUYtXBcX183heI6DhbtQ/Gr+81vIyIiSiv65BmiT56jsLAwHoba/2HRtZpKXoLR6mxRC8dXCoDXvrkf+17hr9MREdHmPXuxjv/39TO8iClBKENyI2eNeUsjc7ep9ijaX8hQJCKiLdv/SiGK9hcm5Aw2OF4l54lktTDawu5/pYDdp0RElDXFr+7HvsKCpKFolUlmOQ9GM7mwr+5/xTybiIhoS75xQMkWmTcbkddgNKf2fnahEhFRlu17RelO1Ww0HPOSTOZTWu3Ba4tERJRt+17Ru1LN2ZOJl5pMGQwOIiIi2pCt3gOf12DcyqktERFRpraSN3kNRmzwdJaIiGizNps3OQ3GzSwQERHRy5TTYCQiItpu0p20MRiJiIgEBiMREZHAYCQiIhIYjERERAKDkYiISGAwEhERCQxGIiIigcFIREQkMBiJiIgEBiMREZHAYCQiIhIYjERERAKDkYiISGAwEhERCQxGIiIigcFIREQkMBiJiIgEBiMREZHAYCQiIhIYjERERAKDkYiISGAwEhERCQxGIiIigcFIREQkMBiJiIiEgq+exGLmidkSUz86FoshFothfX3d8Dj07YPmt2zJ2thFHP1gIv7c0fM5/C2lhtcAwKy3CWeHo2JKJS7cG0DHITEJADALb9NZxF9aeQH3BjqQ8LIMTXrq0B3QnjXDN+NFg/EllKm1JYx/1ItZpx/n81WISwPoaL2BefP0FJp9M/Dma/k2IVWdXBroQOsNbW2TtZHsMX7fRuS4LWW03YthKzuCmuZ2nOtsQVWJeX6erY3j4tFL0PeGQHGbH+Meh5iyuy19+RiFhYWGR0FBAQoKCgAg/q+VXXXGWFTrQKV4HgxaVeUFBIMyFAFgHsHZNdM0AEuzCImXFtfUbjoUKVtW8WDEi/Zjrbg0GMSyeTbRSxFFZDmEidu9OH3MhfMjC+YX5NXa1IghFAEgOjyESdM0srarghGHHHCWieez80ioniuzmHponghMTAXNk4D5kOEosaGhVjyjl2LyKk73DuPhU/MMou0igqnek+gYSNj75MkKAoPmWASAAIbGLU4AKMHuCkZUoVZm18NZPDDVg7XgOCwiEAgG8cA06cHsrHjmgLNGPCXaBRq8M5iZ0R457I7cg+ZveDCwZJ6aBysTGLLcyQETt0axYp5ICXZZMAI1TtmHHoS5NzU4YXUkBWB5CkFDJV7BfEh01JXVoDLxciXtYZUX7olQsX5s5+uL282hjoGE8puZ8aFZvMa6zPMb6InL8AXuf34HvjNO2AyvnMfHt5IkVA6tTIwgFH9Wg+Zm0Y0WGsEEkzGtXReMpZU10KtBFKFZmXazGBed7GXNzdBj1HydcR6G3lWHA1XiKdaWMDngQaerCXV1dairq0NDUzvc10fwYFW+cINWZzF0xY32pob459Y1udB5sQ8jaT549cEIrrvb4WpS31fXgKaWTngGJrFk1YOyNIAO7TvqOjCwBKwtjeO6ux1NDdo6dcIzNIv4N6/OYsjTKea3w319PPlRaNbKaRKeujrU6SNFAACBbm35PQnXT9aWJjHg6USLKMsm12a+O4tWH2DkuhvtojyU7aSUY+J2UtdbfXgm9W0Q384J22AF49fdaI/Pd6HTM4RZi3We9OifbVWGZmvjF8XrW9Bn7mZRrYy4M3pdtm24DWRFEUpKj6DhfB/u+JoN4Zj0up7WLlqa0KCVU5ML7e7radt5aksIDOmxiJoWXLjQCb2zK4Rbg8k3xtJAh77dOgawhFXMDsn224CmTg+GrCqTuT55JpVBctfl/qwJ7e7rGM/dxsiKXReMqHKIsAPmQ+KU0TCYphjOU++jUYzWMVxnfBCEoSPVIV64MgZPayu6bwQQiuijc55GHyI42IvTx9rhDVpXnFRWxjxwHTuLq6NBPIyKi2jRCEITt9F7+hg6bi0gsUotYOS8C8dO92Iw+BD6Ij1FdDmEwI1utB7rRF+SyqxYQ+jjThxrvYTB4ENoX/80GkLg6lmcvDKJ1YURnD95FlcDITH/IYKDl/BOxwASeo1yVE7prSJ4vR3HWrtxIxDCsijLaET7bhc8Y0njPDcWBtDpOo3ewSAeivJQtpNSjq2tHkymKJLV0StKHQmE9O0st8FqEN72d3BpMIiH8fkRhAJXcfbkFUwmVp4NKXK2oDH+bBmBgNVOdgVTo6It1XTilOGoMhey0Qa2rqThAs4ZLrnMImgqotXgdbQfU9vFchTx2hmN4GFwEL2nj8HlGUt+sJnKgyEMil1eTUsjSksb0SKWaXloyLBvS2othI86juHsVdl+nyIaCuDqWRc6011DXR2Fp1UZJKfvz6J4GBzEpdZWXElV0V+y3ReMcMCpt1xgdjZ+7XAlOCEG0zSgqfYQHHK0jrjOuDIfEiMeK+Cs1fpRZ+E9/QECkfhMCw8x7HYjXb0xmPXi9AcBpPxYAPMfuXHVsHdbxaTHjd6pNO98GsLts6mW6SECoyG9kZpERi/B1dGLpF8zfwPXDRf2c1ROGVgYcMM9+DDpuigiCHxwGp4tNM75G63irCjx4TGcKixhwHMDIXWhKk/dxH21G+5OT6N+lhEJwNOXfLc1FRhNXkfmb+Cky41hi8FlAIDIKK5+bBVkG1DUhI624vjT5UAg4do8VqYgc9HR3ojcXoXIVhvIhlI4m+XY+GUsLIh2sTAAt3sw7eCxSOADnPZM6j01GXoQCIj9Vg1aGksBlKKxXZwuRAMYyaSH92EAAauB/QCApwjdcMObvKoCU4EU7T+C0e5LGNlU+ufeLgzGIlTVVuhPl0OYXwGANQTHRW1obIQDQJVDVBhxnXE+KF5b7IDjiPLfpYGrGBYbu6LNh8+/UHdw145D/+Z53Ogbtzi7s7KEgavDYodXgePX7uALqx0nIhj9WL+AvjZ5FR5Z+2zN6LlzX3nvF5/Df0Fe95jHjfN9iTsyQV+f+/C3ySG+T/H0KWBzXsYn6vp+8r7cAQDBSb0VZb+cGuCdmcGMT15xUu4TNFxnWhqAR94Ld6AGZ/yf62Vp+O4IAt1XMLbRvc9mzN7Cx/HFasb7F2uh3OpWhCMt53BcFHU0NJt49i3IbXDvsvG+tKdPAVS0wff5F5iZ+QKfXzN27S2H5jd3JiI4XM2IR+NyAOaTxpWpUTHArRGnmnMbi9luA1t16JC6s1AtR7RlUw6O9Np5ADVn/Gq7mMEXd67huNh1RQLduLKhyvkAgYAYF1HTgka16Eub28SZfhTDA5m0OQCwobFH3Rd98Tn8Z2Sbj2D4+lCa+lSpt78v7qCnUdbGIK5/nElC598uDEbgiMOhN1wEMRVS/xXjbiodtSgCAIdTVBjtOuMC5o39qOr9kUsYH5X9FJfh9zSgtAjKDq7pCvouyL7ZEWQ0OnppHPJjy854caXpiLJ8KMKRlit4v7EYFY7juHDtE9zrO64ega8gcDsAvVOuER/e8aLlSIny3qJSODr64JcBtnwbty0veig/YNAXX58SODpPGe4LRXEbvH3tqFLXt6rznGFgRDSqNeIclVMGZm99LHY8ZThz8xbOO0r1smy6glvXxI4dE7g9kiqGsqTWg/Gkg0VKYMv0hvDiZvRc07fBofYzhm0A1OCy34OG0iIARShtOodTYmeL1dU0Z9IZcLSjPR7k5u5UUzdqYwucSuHnSJbbQDYcME9QGQ6OgLIzN3HrvENtF0DRkSZcuXUNzXrlxMTtkZQHSQazQxgy5KI4Uy9qQovsSZsYwVQGba7sjA/XW9R9UVEpHOf9+FB+TiiAqRTJ2PihX29/RUfQct2HM/IgMDCWWbdunu3KYESl8Trj7OwD4EFQHMWWwelQb9UvcqBJvHhiIgisPcCs6I6Kh+jarGGUa0WTI6GL6JDDKQb/JI6KtbI2GzTszJubzRdkStByfRxD/ivoaKrCoRJtTxMyDhBqbofLYgd75PgpY3mYL3qoypwO4w8YHDoEw7FvQ4Phc5LuAXJUTumZfryh8hTazUUJoKTplGHnMx+czfDoOYvWVrGyEMT4UB8udnbgo0zX39EIhyFoDqFSBl9FExyGwj6AA1kPpirDSEfDNStDN2ox2jqa1IOSXNliG5j0JHSBGwaPZNFCMCgCvBKnrCsnThkrJ6x+e8RKcEQeIGjdqJoiNLXLQ6gJ3BpNkWgAgAq0t5iXsQRNzTIZU7XdZrQkbAxj3UE0BMP4yG1idwZjUS3kWJnl0Dxmg1N633uxE03x7V0KhxyBMxvEg3kZosWoqVXjIhIx/NLKw49OJjam07fFa6KIJu1j10Ui8lM3cPawtGT4AYPKGmMXTlypzdidtmy9UCUJX2wOPvPzJHJUTuktYV5eXztyJMkvFdlwRM5YjiS/bpdC4rB94yPxVo1VzA5dgbu9CXVHj+Gdk25cunobEyExACOdIvVMKM4UfEUHMt1KW1LVLnoTogGMqMlo6EYtbkZLrn+BLMttIBuWFowXMUtKlC2yZKycxjoo2IyVE/Ge2JSCGAuIg0LRjRrX0A5xeRihoUCas9EqHLEozqL4gbkiad2tqDQeWKsS9zPbz+4MRpgH1QTw8YQ4rGlogvwdAMPZy/IUBodC4sirAVv5wZuFpdRVjxS7vpzWZnG9/RjOXh1FUB0ueqC4Bo1nLsN/5xOYLtduf4ea0R4f6RhFYGQ2oRu1rL3d0M72hjXMGk6hilFxxJxQOTA5pP+mMwCEruId88Fondv4mvlBDFl3HqkiWE13UplKZGnDg4e2i10ajECV4SdwpgzdLQ6naS9U5RANeB6j8vqYw6nfA3SgRB0woUh3xjAzM4OBDH512WaTg1yWsJDREWJiV+d8KMlwuxXjGVFZmfE25KzLUTmlZ+pWXFhIckQcwYKcUWY8m8iFBx97MBg/YbCh+dp9TI7fwvXz7XAcKcnLWV52GUc6RgMjmDX84kqSrsJs225tYGEQtw2/IdKAJnXncshYOY11UIgYKydsaRd1DeNDxvt7M7OMoWQ/kQMk3Retrcq+3WIUJzsBjEYs7x1djci4LIF6Qr2t7NpgRI3TdD1MU4lG40UYAA40ym5zoaymUr8+VlqJGpFh84GpNCOyMmP88fMopgKJl6Mf9HWgqfMirg+M48GKVttqYPihn8CQ5QjLhdFBQ9ewsyHHO6wclVN6R+BwyOsz1kfEq+ODMPQ6NThyfB1sCcEp0blceQbvN8m9yVM8tdiBbHelzaf0gWvRAD7uFb+4UtOO5mwc66S1xTbQ4E04SIs/EvvCk1pbXVJ+3L7jI8PvKxe3tccHWhkHBc5j0LpyYtBYOU3XlC2sTWEkyQ96pRMNjFn/RCaQJDjXMBWQX1aFWnlcbzCBwYTrmKaRs8UVyMcJ9Ubt3mA07ZzjypzQxt3oiuCQI3AEh0OGiOnCcegq3FfGod2mtLYSRF9HE5o6L6JvaFIEWBqHmnBcXhMdvISLI9qN/GtYCfah9/Y8oqEJDN64hNPvdKv3/5Siqc0w1AwfnPRgZGFVee/aCoID5+GWIzsqz6HTelWzKEflZGFhXjlDWFtV1rm2vV0M6lnG7bOd6AuuxMtyYfwKOi+JQQrFzTh3PM8tc+2p8brM0iQCye493M6KnGKkYxRTyvBvAEDjKW3kdK7lvw1Y3b969FirxY/bV+Kc/KJaOZoXWL59Fp19QWjVf21hHFc6L4mDtmI0n0tfjmvjxr+kUXP588SQF49PDMNChzGQYkh4dNiD8wPqMq6tINjnhkd+meM4nCkWMHTVjSvj6r5sbQEjnm7clrnY3LItu9t3bzCiCvIWRU2xs8n4026q0lqnuL9N4zAM4gGAqs7LaBZdGw9HL+HkUbVxvOPG7fkooqEJ3L7ajdOnr2c4FPkQOi63Ge5VnOg9iaN1dairO4p33LcNR6G2tveh/ZnJEtdFyDsfEAmg9+Qx5b1H34H7xpToQqrEBe/m/57kRuSmnAAcqTHcQjKvDuw5euyqcuRbdQ6Xj4svfhrCbfc78bI8eWkUegbZ0Oy9jIZ0R+Rbdgi1NeJM9uEt9I0sYQ3A2sIIPGdNf+tvaWFTg4HyzzzSUdOIlqacF2rcdm0DlRe8pr9fWYVzl4+Ldv4UodtuvKO1i5OXMCoOkGzNXlxOWzlXEBg2xKJpNGqiquZmcfAITAwGUvToRDB1Q13Go+/AfVv+CIgNbe+3pAnuhxi9pO7Ljp5Er+GOfwcuntuOsbirgxFwGH4CR51mTjrNEQdkLxwAoMKJ+A/eaEoa4PVfQE26fnGbEz1+T+ZHQ7Ue3LkmG401m7MHfo9h6BA6bt7BZWeadx6owZmbfnRYDRPLhVyVk/lPi8VFEFkBgCI0XLkD36mKNNftbGj+8BN4G5JdIMmu2vNecaAQxURvK47W1eHoyV4EIsCBYlH5ovPqj1LsAKaRjgBQ3NaBPObiNmwDNjgv38FNiy8qariCO75TqEhdOWFr/hCfeBsM1+otmf+SRmVzyjM4AEBVM2SHDoJDSX5YvALNbeYfRtfY4Ozxw7ArSuBEW1vi6YaiAm3+a/ED/O1mVwdjUVWt6SzQgaakHfa1aDJdUih2OCyHG+NIB27dvwffhWbUlBWLHXAxbBUOHL/sx+f3+tBi+ebkSpquYOz+TVw+7kBFsWg5xTbl5n7fPdzra0lcpqIjaO8bw/1PenCmsQa2+I7qAIrLatB8wYd792/hfG3aZpZdOSmnKpwfuIkLjRX69ZoDxahwOHEkvnolaLg4hPv3fLhgKstiWwUcp3rwyf0xeF15bJUlDfDeuYnLzTXQF6cYtppmXPDdw/2xK+KHJlL/0PP24kCLvO8OxWh2WXTV5NpLbwPFsKnfc+eLMfS1az/Qkaik4SKG7t+D78JxOCpEuyi2ocJxCj2f3MeY15XmTExh/EsaQOXxpgzOhqtwqlP+oGuy+laEms4+3Ll5Gc012nIeQHFNMy7fvIO+tA23BE2eAdy7dgqOCm2DFKPCcQrXPh+Cx5GrbbF1BV89icXME7Mlpn50LBZDLBbD+vq64XHo2wfNbyGiHSbobYJbuw+guA03xzfQA0DbytJAB1rjP6lYiQv3BkzdwalNeuqg/wGcZvgSfuUpf5a+fIzCwkLDo6CgAAUFBQAQ/9fKrj5jJKJcWsPCyEV4xM1xe/PeRdptGIxEtDHxn1E7ipO9E2JgSw06c//3pYhyjsFIRBtjKzOMatRUXriC9kwujBFtcwxGItqYkkM4JAe3VDhw6to9y1GYRDsRB98QEdGuw8E3REREWcJgJCIiEhiMREREAoORiIhIYDASEREJDEYiIiKBwUhERCQwGImIiAQGIxERkcBgJCIiEhiMREREAoORiIhIYDASEREJDEYiIiKBwUhERCQwGImIiAQGIxERkcBgJCIiEhiMREREwi4Ixmn43G644w8PhsPm1+wu0z433L5p8+QtCGPY44YnpwWnbCerxc7++rxs2SpPvW5v/bO2LjzsUduYD9nZWqKcwsPwpGu7mbwmF6Z9WVznrQkPe+D2DCMnRZBR+aao29uonLZqhwfjNHzufoRdvfD7/cqjtw4zPfrG3X07XcqqjHYGL0d4+C7mbC70+v3wttnNs/NsGp+ORVDd5Yff34168+y8sePwRopiG2/f7WCrQbtb9687OxjDjxCGDXUNoqXY23CiOoKZyc1u6u2vvtsPf/fL2zVRHtkPYyM5kFs2lB82T9sKO9q8Gwh9+2HYbeXI6iKQzt4Gr9+L1JsjxTar737JB03ZU/DVk1jMPDFbYupHx2IxxGIxrK+vGx6Hvn3Q/JYN0s8YrTZUeNiDnrGI8qS6SwmTaR/c/XPx19jU90773LhbLj5n2gf33XL0etsSd0zhYXh6xqB8sg2uXrUyhYfh6VmEvXoOc3NAdZcf3fVhDHt6oCyGDdXVwFy4Tv1cOQ8AqtGlVqxpnxv9qEb13ByUpdW/R5nXBX834HP3q/N1yvemWE6Y5tmqUY05hOusyzFZmSnTgWp1fQ3zzO+rVtYF2rIJ+vro20f/HGUba98eXzflnUnmKeU6U+eCfWxMmW9zWWxL+X6lfA5/6sZdVANzc4ho70m2/khWxtr3K6/T6qFx2XXTPjfiH6/WU0PdFfUC0OvZifg05fsWT6TZ7uFheHpmUBevB8r6o8uP7sNWdVf7QmM5yzajF4u5frrgCo+pdbsaXX4npuKfoa2PKKeGSXXZugGfWBetHS+eMB0MmtqO1r4NErevtm2s2pyxnotyU+u58jr1My3rhqmNSYZtIpdXLQO7WueUmWJ7p9p/mCT9DiRsw+ouP7ohlt3mglL0Sv04/Klok5B1R9k+M3W96IbPuH91TolyMu1/De0vk223dUtfPkZhYaHhUVBQgIKCAgCI/2tlZ58xoh7dXdWIjPXErzHKs3p7mxdd1bLgp+HrD8PVq3a7dlUjMvYppgHUO6sRmZmMdylMT83BVteQWPkwDV/PGOxdymf0uoCxHtmvPodwudK1210PhId9GIPSHeb3nwDm4tVWmWfvUruBe+GyzeGu7POZC6NcXdau6gjGfOYuj3p0a13Ifj96XTbA5sJ7Sis3LKe/yy6WM4xh3xigdUEbF8skeZkp9PVV5vnUbqtp+Prn1K43P3rLwwkBniA8DI/6XUrwhDHsEV3lvS6E+7VusVTzFJGxGbX8euHCGHoSunzq0d3rgs20Q4vMASf8fvi9bbCnXP9UZaya9qFnzI4utT6YhYc96A9r9aML1XP98AyHYW/zxrdnr/ko3N6AOtscprQvCk9iJlINp8V2T6yfqRjrrq4e3f4uKE1J3TbTPrHcav38VHzL3AzQrdfrfvcUnNo6wlTPDexoqLNhTl85TM5EUK2sXFxC2wn3W1y/Tty+Ce+LtznzdrZbtDdR5yzrhtV71Pf5RD3pdcE2d9dYV7U6p5WXujKp9h9Gqb4jSVs53K3XMVPQ1jurgbmpeL0JT84gYquDsXPOvH8VRL33+/3osuvtL2EbWG67l2uHB6N2+q41TmCuP9UAnHp0i66C8CPxononqiMzUHpgpzE1Z+qi1UxPYQ7aTgiwt51ANcROytC1qzRqPWDr8Z7Lpr0Q9javqFCPsGiu89Un4st6uFx/nyWtImoVfHoKc/GQBFD/HlzazjQ8iZmIWM769yAWyyRFmQEAqnFCX0jEP8aynFII3zWdzeg7/Pjny27yVPM08fKzo+2EsaGnVO0UQZRi/U3rmNCVNCPPNKxY1w95gGbNGB7hyRlEtGW2LHdZP1NJUuet1Her4QAAYSRWC73sD9tlmR5Guqpsb6iDTdtWhtA3ie/4le49877ZSuo2J8LdsH4AEMZd0QugS/UejWn5Hi3qZ3Uqm+s9tXzkNVTr+mEtxXeY23smXab1TlFv1IOTE1brZm16ak6sE1D/nkvfptjctsunnR+MQn23OHpNduTm0Uew+mbkvHo44zvdRwibjo404UdhIOPrHErDsycbLTDtE6Np7yKcrM6nEz/T0nfA4UdhIDKGnvjnK10X4UdhtdHIBphqQEOqMksusZzS7BAjAGyms45Hi4hgDv1i1HH/HBBZfJR6nsomL4jJ0N6Q5OufuI5GkQhgM/cCGKSpHynI8Hi0qJ9RpVumrAkPwxMvex8yrBaZkWfEjxb10JcvafOqZ8PaMiQ7GDZJ2ubUs+K5fn2+4TQmAsBm6i1J9x7dtE+vQ+674QzrYmL9SFVXkn5HQnvPhBLCysHXIywmOzixpBwoyZ48d88YIur0TW+7PNrRwRge9lhWxKRnV9OfYixSHT+9954w1hStO3V6cgaw7EZVK2ZkEfruNxUlDBLPsqDscO8q19KUM95u1JlfkhGt68x4BGg/bFe74dSuFW2d2+xqSMijfIsjfk2aMksmsZzMR+cm1Sfg9So7mfgmPVwOG/Tvjj+661PPU8mQtDpKz0iK9U9cRyObqxvebhcQ7142S1U/0oiHxzSm5sQZYpplypbpT8cQqda6w7zIsFpkSD8jnp6aS+hG1djbvPHtnvxgWErX5sSliV4XbLIuohonvF50VevdnOnfowoP4+6cTe9y7c60pSfWj6R1JdV3JLT3zMQPvqanMGdxcJKcEsJ6OWsPfR+18W2XXzs6GJUNp1yT0SnDyq2vD0KEgNJIDOqdqI6MoX8skvzIzNDFAGVIvexOM1AauN41piybFN95T38qBgRkSr92kNAVoa5L/ARMPcL3TWs7VXF2Fp7ETMrvTlFmyajlFD9bmp5Kf41RvWY8169eE1N3/voZl3Jfn2c4nHqeJt51oy73hhq3lGT9TXVBKWPT0a+9DUo2WjV86/qRvO5Kanj092NOniGmqp/2w7BDdDdntE1SCD9Sljs8jEyrRaa0tt0/Zz0S1nybwOFyW8YjeC3bnHnb2Q/DbjEKt75bHLxl+B5FBPrXigEyKan1I36WqnRpJpfkO9T2rl9mSH5PsYHaxvr7w3DFr8lkpt5pHIug3AOrtOutbLt82dHBqPSVd8EuT9nVUXbadQDlInK/cq9O/Xtw2SLqKbwPOOEyHUnVw1kNIGnQQdl597oQ7le+r2cMhi5MM3tbtzLww+2G2z2F8vg1Au26l9oNM+VEV7XpLCcdtWEbuizi4WBcTreyoGqA2tGmnp0p8xZhT3YBMG2ZJaN8P7RluwtUJzmRN1CvhSpH5cpy6tu3H3PVXeq2TTVPYasG7rrdSjcyXOhNOHrQdxpjPUl2FCnXP7GMzWfugHqdLzIGn8Vpo73NqwxMSLIOqdgb6mADTEGaqn6q1zC1MpsqT3FtObX691ywaV31PuCEy6YHZTbYG1CnrJzlJY36bmXQhlbne8bs6Eq7fVO0OXsbvF120b3Xj7CrO2FbxrsY+32YzvQ99jYoX6u8bsrZhWoRYqkoA1y0SwY9WEzWUFN+R2Jb0Q6m7Q116na0GqClBHOybQDz/tUwoxu9rnD8Uoesh8m3nXLZwrId5tkOv10j+6yHhmdPrj+foDYwq4ESu800fO67KE92i8AOl3ALFdEG7OHbNbLNemj4Vkz7ZPee2lVm3ddCtDHTU5hLcTS/s6UYGU6UYwxGTXgYHncPxuxdidfrtqD+PdGduMGuMqJkpn1uuPvDcHVnPoR+x5j2Je+WJMoDdqUSEdGuw65UIiKiLGEwEhERCQxGIiIigcFIREQkMBiJiIgEBiMREZHAYCQiIhIYjERERAKDkYiISGAwEhERCQxGIiIigcFIREQkMBiJiIgEBiMREZHAYCQiIhIYjERERAKDkYiISGAwEhERCQxGIiIigcFIREQkMBiJiIgEBiMREZHAYCQiIhIYjERERAKDkYiISGAwEhERCQxGIiIigcFIREQkFHz1JBYzT8yWmPrRsVgMsVgM6+vrhsehbx80v4UoZ/4zPIM780P4++ojPH722Dybsuzg/oN4o+QwTla249/sdebZRDm19OVjFBYWGh4FBQUoKCgAgPi/VhiMtCf8efkv+PAv/8s8mfLkg+/9T3y/7HvmyUQ5s5VgZFcq7Ql35ofNkyiPWP60kzAYaU94tLponkR5xPKnnYTBSHvC18+/Nk+iPGL5007CYCQiIhIYjERERAKDkYiISGAwEhERCQxGIiIigTf4057Q8tkJ86RNOg7vj36C2v36lOjKb3DqT6PyRZuU+NmLfz+Bn/6XfE3+tb71W/zHa3/Dr3/3c9wzz9yAkXfvmicR5Qxv8CfKi/P41bs/Qe2TP6LlsxPq44/4qvQnGPnBefOLLZzHr969i1991zwdeiiaPhtviNd/5xcYfPe38H7H9NYMtL71W4z86BdoNc8gogQMRqIM/ewHb6P8WQi//kOfmNqHn/59ESipxM/E1I17E9/aDyz+w/jZ/2flMcq/lUnoElG2sCuV9oStd6Wex6/efRvIqGtTeW25+kzpDjV2kyZ2kYozRkPwauRnPsbs7I/h+au563URv//sPH6pfta3niyivKQcePYY2K+2tWeheJfoz35wFz8sUd+6Kr9Xfu5jLK4C5a+yK5V2FnalEuXad/4HXsdj/OOf5hlmx+H90dt4feU3SnfobAivv/FbeL8zCs/v/ohFy1AEgFF4/juEaMnbGHn3LkbevYvBt46L+X346WwI0XgoAq1v/bvoev0NZp+V4/viPeWvfoVff3YCLb/7MX698tgQiq1v/RY/fDWkzP/sN5h99e3497W+9e+ohTbvL0AJD2Bpb2EwEm3Sz36gBJj2+NV3AXzne3hz/yL+rA3G+evP8efVg3izTIZcEn/9OU6p1xd/vfIYxaU/0T/Xwr0//Vic5SldsVL0n39JcoZ3HN9/7SAWl7UzwFF4lhdR/Nr30KrO09+rdOcS7SUMRqJM/PX/4iscxLde0yf98g/6IJn4T2S/9jqKUY4fisD8YQlQXPSm/sYM3PvTj+MBWf5Gn/X1y+/2iWD+Hl5/Zn5BMkqIlr8hgv2NcmD/63hTnffV1/oo23tf/8PwbqLdjsFIlJE+/PcqUF6WZmTnP79CFIv4fXxkqfqwvG4ofLfPctRo8lA6Dm9ZOaJal+1n/xt/M78kqb/hH8+ULl3DMn52Hr9U573+Tf0Mt/Wb3zK8m2i3YzASZeiXf/gjFvfX4D8Mt2Yo1xS1gTb461/wN8O1PuUWDeP1Qgv/NW/92WXlwOo8fimmSvEz0e+6DPc/pjaKP//zsSHkf/aDu2owK/OKS13qWarStUq0l3BUKu0JWx+VqjOM5oRxpKfCOCpVjvjU3mv9owDmUabm1+nzF/9+Aj9Fn9IFCuU7fo+38UP8ES1/+Bu8P/oJ3vyneO93foHB2hoUx0eumtdDnw7TvMXVRWUgD0el0g6ylVGpDEbaE7IZjLQ5DEbKp60EI7tSiYiIBAYjERGRwGAkIiISGIxEREQCg5GIiEhgMBIREQkMRtoTvrnvm+ZJlEcsf9pJGIy0Jxwuid9uTy8By592EgYj7QknK9vMkyiPWP60k/CXb2jP+M/wDO7MD+Hvq4/w+Bn/lFKuHdx/EG+UHMbJynb8m73OPJsop7byyzcMRiIi2nW2EozsSiUiIhIYjERERAKDkYiISMhpMKbqwyUiInoZ0mVTToORiIhop8lrMGojgtKlNRER0VZtNnPyGozSRheUiIgoU1vJmJcWjACwnrtbKImIaI/aarbkJRjNN1Vqj2fP180vJSIi2pJnz9cTulE30qWal2DUmBfw2QsGIxERZdezF3owYhPdqjkPRvMCyedPnr7A1k54iYiIdLFYDE+evog/T5VByeQ8GCXzGeOLGBD91zPzy4iIiDZl9V/P8CKWeAlvI/IWjOZQ1B6P156zS5WIiLbs2Yt1fP30RULOYIPhmJdglAtkXuDCwkJ8GV1D9AnPHImIaHOiT57hy+ia4a9oyGDEBsIxp392SjL/CSqrx75XCvCN/a9gX2EB9u0rRGGGK0FERHvLeiyG58/X8Xw9hn89e4HnL2IJgWgOx20XjMgwHOV8+R4iIiJYXJqT/7d6yPdk4qUEo/Z/cxCap1m9j4iI9i4ZcMlCUU4zvzYTeQ1GJAk8q0C0eh0REe1tVmFnFYZWr8tU3oMRKUKPoUhEROlYhZ7VNPP/M/VSglGTKgDNz4mIiCRz6G01EDUvNRg1ViFoNY2IiEhjFX5W0zZqWwSjhmFIRESbkY1A1GyrYEyHwUlEtDdlM/jS2VHBSERElGt5+Uk4IiKinYLBSEREJDAYiYiIBAYjERGRwGAkIiISGIxEREQCg5GIiEhgMBIREQkMRiIiIoHBSEREJDAYiYiIBAYjERGR8P8BZNWOrohn7W0AAAAASUVORK5CYII=;" vertex="1" parent="APwTUMDmVfPKR00U0lOk-10">
          <mxGeometry x="644" y="337.84" width="177.35" height="85.16" as="geometry" />
        </mxCell>
        <mxCell id="APwTUMDmVfPKR00U0lOk-44" value="" style="shape=image;html=1;verticalAlign=top;verticalLabelPosition=bottom;labelBackgroundColor=#ffffff;imageAspect=0;aspect=fixed;image=https://cdn1.iconfinder.com/data/icons/ionicons-fill-vol-2/512/logo-python-128.png" vertex="1" parent="APwTUMDmVfPKR00U0lOk-10">
          <mxGeometry x="715" y="436" width="45" height="45" as="geometry" />
        </mxCell>
      </root>
    </mxGraphModel>
  </diagram>
</mxfile>
